<mxfile host="www.draw.io" modified="2020-01-11T14:42:31.555Z" agent="Mozilla/5.0 (Windows NT 10.0; Win64; x64) AppleWebKit/537.36 (KHTML, like Gecko) Chrome/79.0.3945.117 Safari/537.36" etag="_YowbG2sRx5d7YsmmqfU" version="12.5.1" type="github">
  <diagram id="2qj787logakGDvT7mIui" name="Page-1">
    <mxGraphModel dx="2048" dy="748" grid="1" gridSize="10" guides="1" tooltips="1" connect="1" arrows="1" fold="1" page="1" pageScale="1" pageWidth="827" pageHeight="1169" math="0" shadow="0">
      <root>
        <mxCell id="0"/>
        <mxCell id="1" parent="0"/>
        <mxCell id="RSt2233rPy57vHMaOfMn-12" value="" style="rounded=0;whiteSpace=wrap;html=1;dashed=1;" parent="1" vertex="1">
          <mxGeometry x="50" y="290" width="240" height="120" as="geometry"/>
        </mxCell>
        <mxCell id="RSt2233rPy57vHMaOfMn-5" value="" style="rounded=0;whiteSpace=wrap;html=1;dashed=1;" parent="1" vertex="1">
          <mxGeometry x="50" y="10" width="260" height="140" as="geometry"/>
        </mxCell>
        <mxCell id="RSt2233rPy57vHMaOfMn-6" value="" style="edgeStyle=orthogonalEdgeStyle;rounded=0;orthogonalLoop=1;jettySize=auto;html=1;" parent="1" source="RSt2233rPy57vHMaOfMn-7" edge="1">
          <mxGeometry relative="1" as="geometry">
            <mxPoint x="210" y="80" as="targetPoint"/>
          </mxGeometry>
        </mxCell>
        <mxCell id="RSt2233rPy57vHMaOfMn-7" value="Data Lake" style="shape=cylinder;whiteSpace=wrap;html=1;boundedLbl=1;backgroundOutline=1;" parent="1" vertex="1">
          <mxGeometry x="70" y="40" width="60" height="80" as="geometry"/>
        </mxCell>
        <mxCell id="RSt2233rPy57vHMaOfMn-8" value="ingestion&lt;br&gt;Script" style="whiteSpace=wrap;html=1;aspect=fixed;" parent="1" vertex="1">
          <mxGeometry x="210" y="40" width="80" height="80" as="geometry"/>
        </mxCell>
        <mxCell id="RSt2233rPy57vHMaOfMn-13" value="Prestador" style="shape=cylinder;whiteSpace=wrap;html=1;boundedLbl=1;backgroundOutline=1;dashed=1;" parent="1" vertex="1">
          <mxGeometry x="80" y="310" width="60" height="80" as="geometry"/>
        </mxCell>
        <mxCell id="RSt2233rPy57vHMaOfMn-15" value="" style="edgeStyle=orthogonalEdgeStyle;rounded=0;orthogonalLoop=1;jettySize=auto;html=1;entryX=1;entryY=0.5;entryDx=0;entryDy=0;" parent="1" source="RSt2233rPy57vHMaOfMn-14" target="RSt2233rPy57vHMaOfMn-13" edge="1">
          <mxGeometry relative="1" as="geometry"/>
        </mxCell>
        <mxCell id="RSt2233rPy57vHMaOfMn-14" value="" style="html=1;dashed=0;whitespace=wrap;fillColor=#2875E2;strokeColor=#ffffff;points=[[0.005,0.63,0],[0.1,0.2,0],[0.9,0.2,0],[0.5,0,0],[0.995,0.63,0],[0.72,0.99,0],[0.5,1,0],[0.28,0.99,0]];shape=mxgraph.kubernetes.icon;prIcon=api" parent="1" vertex="1">
          <mxGeometry x="220" y="326" width="50" height="48" as="geometry"/>
        </mxCell>
        <mxCell id="RSt2233rPy57vHMaOfMn-19" value="Main database" style="text;html=1;align=center;verticalAlign=middle;resizable=0;points=[];autosize=1;" parent="1" vertex="1">
          <mxGeometry x="50" y="10" width="90" height="20" as="geometry"/>
        </mxCell>
        <mxCell id="RSt2233rPy57vHMaOfMn-21" value="Api Gateway" style="rounded=0;whiteSpace=wrap;html=1;dashed=1;" parent="1" vertex="1">
          <mxGeometry x="50" y="220" width="1000" height="40" as="geometry"/>
        </mxCell>
        <mxCell id="RSt2233rPy57vHMaOfMn-22" value="" style="rounded=0;whiteSpace=wrap;html=1;dashed=1;" parent="1" vertex="1">
          <mxGeometry x="300" y="290" width="240" height="120" as="geometry"/>
        </mxCell>
        <mxCell id="RSt2233rPy57vHMaOfMn-23" value="ServiÃ§os" style="shape=cylinder;whiteSpace=wrap;html=1;boundedLbl=1;backgroundOutline=1;dashed=1;" parent="1" vertex="1">
          <mxGeometry x="330" y="310" width="60" height="80" as="geometry"/>
        </mxCell>
        <mxCell id="RSt2233rPy57vHMaOfMn-24" value="" style="edgeStyle=orthogonalEdgeStyle;rounded=0;orthogonalLoop=1;jettySize=auto;html=1;entryX=1;entryY=0.5;entryDx=0;entryDy=0;" parent="1" source="RSt2233rPy57vHMaOfMn-25" target="RSt2233rPy57vHMaOfMn-23" edge="1">
          <mxGeometry relative="1" as="geometry"/>
        </mxCell>
        <mxCell id="RSt2233rPy57vHMaOfMn-25" value="" style="html=1;dashed=0;whitespace=wrap;fillColor=#2875E2;strokeColor=#ffffff;points=[[0.005,0.63,0],[0.1,0.2,0],[0.9,0.2,0],[0.5,0,0],[0.995,0.63,0],[0.72,0.99,0],[0.5,1,0],[0.28,0.99,0]];shape=mxgraph.kubernetes.icon;prIcon=api" parent="1" vertex="1">
          <mxGeometry x="470" y="326" width="50" height="48" as="geometry"/>
        </mxCell>
        <mxCell id="RSt2233rPy57vHMaOfMn-26" value="" style="rounded=0;whiteSpace=wrap;html=1;dashed=1;" parent="1" vertex="1">
          <mxGeometry x="550" y="290" width="240" height="120" as="geometry"/>
        </mxCell>
        <mxCell id="RSt2233rPy57vHMaOfMn-27" value="Clientes" style="shape=cylinder;whiteSpace=wrap;html=1;boundedLbl=1;backgroundOutline=1;dashed=1;" parent="1" vertex="1">
          <mxGeometry x="580" y="310" width="60" height="80" as="geometry"/>
        </mxCell>
        <mxCell id="RSt2233rPy57vHMaOfMn-28" value="" style="edgeStyle=orthogonalEdgeStyle;rounded=0;orthogonalLoop=1;jettySize=auto;html=1;entryX=1;entryY=0.5;entryDx=0;entryDy=0;" parent="1" source="RSt2233rPy57vHMaOfMn-29" target="RSt2233rPy57vHMaOfMn-27" edge="1">
          <mxGeometry relative="1" as="geometry"/>
        </mxCell>
        <mxCell id="RSt2233rPy57vHMaOfMn-29" value="" style="html=1;dashed=0;whitespace=wrap;fillColor=#2875E2;strokeColor=#ffffff;points=[[0.005,0.63,0],[0.1,0.2,0],[0.9,0.2,0],[0.5,0,0],[0.995,0.63,0],[0.72,0.99,0],[0.5,1,0],[0.28,0.99,0]];shape=mxgraph.kubernetes.icon;prIcon=api" parent="1" vertex="1">
          <mxGeometry x="720" y="326" width="50" height="48" as="geometry"/>
        </mxCell>
        <mxCell id="RSt2233rPy57vHMaOfMn-30" value="" style="rounded=0;whiteSpace=wrap;html=1;dashed=1;" parent="1" vertex="1">
          <mxGeometry x="800" y="290" width="240" height="120" as="geometry"/>
        </mxCell>
        <mxCell id="RSt2233rPy57vHMaOfMn-31" value="XPTO" style="shape=cylinder;whiteSpace=wrap;html=1;boundedLbl=1;backgroundOutline=1;dashed=1;" parent="1" vertex="1">
          <mxGeometry x="830" y="310" width="60" height="80" as="geometry"/>
        </mxCell>
        <mxCell id="RSt2233rPy57vHMaOfMn-32" value="" style="edgeStyle=orthogonalEdgeStyle;rounded=0;orthogonalLoop=1;jettySize=auto;html=1;entryX=1;entryY=0.5;entryDx=0;entryDy=0;" parent="1" source="RSt2233rPy57vHMaOfMn-33" target="RSt2233rPy57vHMaOfMn-31" edge="1">
          <mxGeometry relative="1" as="geometry"/>
        </mxCell>
        <mxCell id="RSt2233rPy57vHMaOfMn-33" value="" style="html=1;dashed=0;whitespace=wrap;fillColor=#2875E2;strokeColor=#ffffff;points=[[0.005,0.63,0],[0.1,0.2,0],[0.9,0.2,0],[0.5,0,0],[0.995,0.63,0],[0.72,0.99,0],[0.5,1,0],[0.28,0.99,0]];shape=mxgraph.kubernetes.icon;prIcon=api" parent="1" vertex="1">
          <mxGeometry x="970" y="326" width="50" height="48" as="geometry"/>
        </mxCell>
        <mxCell id="RSt2233rPy57vHMaOfMn-38" value="" style="shape=mxgraph.bpmn.shape;html=1;verticalLabelPosition=bottom;labelBackgroundColor=#ffffff;verticalAlign=top;align=center;perimeter=ellipsePerimeter;outlineConnect=0;outline=standard;symbol=message;fillColor=#ffffff;" parent="1" vertex="1">
          <mxGeometry x="790" y="24.37" width="50" height="50" as="geometry"/>
        </mxCell>
        <mxCell id="RSt2233rPy57vHMaOfMn-40" value="" style="shape=image;verticalLabelPosition=bottom;verticalAlign=top;imageAspect=0;aspect=fixed;image=data:image/jpeg,/9j/4AAQSkZJRgABAQEAYABgAAD//gA7Q1JFQVRPUjogZ2QtanBlZyB2MS4wICh1c2luZyBJSkcgSlBFRyB2NjIpLCBxdWFsaXR5ID0gODAK/9sAQwAGBAUGBQQGBgUGBwcGCAoQCgoJCQoUDg8MEBcUGBgXFBYWGh0lHxobIxwWFiAsICMmJykqKRkfLTAtKDAlKCko/9sAQwEHBwcKCAoTCgoTKBoWGigoKCgoKCgoKCgoKCgoKCgoKCgoKCgoKCgoKCgoKCgoKCgoKCgoKCgoKCgoKCgoKCgo/8AAEQgChgLYAwEiAAIRAQMRAf/EAB8AAAEFAQEBAQEBAAAAAAAAAAABAgMEBQYHCAkKC//EALUQAAIBAwMCBAMFBQQEAAABfQECAwAEEQUSITFBBhNRYQcicRQygZGhCCNCscEVUtHwJDNicoIJChYXGBkaJSYnKCkqNDU2Nzg5OkNERUZHSElKU1RVVldYWVpjZGVmZ2hpanN0dXZ3eHl6g4SFhoeIiYqSk5SVlpeYmZqio6Slpqeoqaqys7S1tre4ubrCw8TFxsfIycrS09TV1tfY2drh4uPk5ebn6Onq8fLz9PX29/j5+v/EAB8BAAMBAQEBAQEBAQEAAAAAAAABAgMEBQYHCAkKC//EALURAAIBAgQEAwQHBQQEAAECdwABAgMRBAUhMQYSQVEHYXETIjKBCBRCkaGxwQkjM1LwFWJy0QoWJDThJfEXGBkaJicoKSo1Njc4OTpDREVGR0hJSlNUVVZXWFlaY2RlZmdoaWpzdHV2d3h5eoKDhIWGh4iJipKTlJWWl5iZmqKjpKWmp6ipqrKztLW2t7i5usLDxMXGx8jJytLT1NXW19jZ2uLj5OXm5+jp6vLz9PX29/j5+v/aAAwDAQACEQMRAD8A+qar6j/yD7r/AK5N/I1nf8JFaf8APOf/AL5H+NNk1m3u42toklV5gY1LKMAngZ596AOW/EfnWj4e/wCQxB/wL/0E1Z/4R27/AOekH/fTf4VJbadNpMy3ty0bRRZyIyS3PHf6igDpqxvFf/IOj/66j/0FqP8AhIrT/nnP/wB8j/Gobu5TXIvs1puSRSJMycAgcY4z6igDmvxH510XhH/l7P8Auf8As1V/+Edu/wDnpB/303+FWbP/AIkAf7Yd5nxtEXONvrnHqKAOhrlfFf8AyEY/Tyh/Nq0f+EitP+ec/wD3yP8AGqt3bPrki3VmyoiL5ZWXIOevbPqKAOe/EfnXaeH/APkEW/8AwL/0I1i/8I7d/wDPSD/vpv8ACrtvqMOkwrZXCyPLHncYwNvJzxk+9AG7XCalxqN1n/nq38zXRf8ACRWn/POf/vkf41Ql0W4vJXuYpIRHMxlXcSGAbnBoAw/xH516JXK/8I7d/wDPSD/vpv8ACtH/AISK0/55z/8AfI/xoA0dR/5B91/1yb+Rrg/xH511Mms293G1tEkqvMDGpZRgE8DPPvVD/hHbv/npB/303+FAFbw9/wAhiD/gX/oJrs65m206bSZlvblo2iizkRklueO/1FXf+EitP+ec/wD3yP8AGgA8V/8AIOj/AOuo/wDQWrlPxH510t3cprkX2a03JIpEmZOAQOMcZ9RVT/hHbv8A56Qf99N/hQBY8I/8vZ/3P/Zq6Kues/8AiQB/th3mfG0Rc42+uceoqx/wkVp/zzn/AO+R/jQBneK/+QjH6eUP5tWL+I/Ouhu7Z9ckW6s2VERfLKy5Bz17Z9RUH/CO3f8Az0g/76b/AAoA2vD/APyCLf8A4F/6Ea0KwrfUYdJhWyuFkeWPO4xgbeTnjJ96k/4SK0/55z/98j/GgDndS41G6z/z1b+Zqt+I/OtyXRbi8le5ikhEczGVdxIYBucGm/8ACO3f/PSD/vpv8KAOqqvqP/IPuv8Ark38jWd/wkVp/wA85/8Avkf402TWbe7ja2iSVXmBjUsowCeBnn3oA5b8R+daPh7/AJDEH/Av/QTVn/hHbv8A56Qf99N/hUltp02kzLe3LRtFFnIjJLc8d/qKAOmrG8V/8g6P/rqP/QWo/wCEitP+ec//AHyP8ahu7lNci+zWm5JFIkzJwCBxjjPqKAOa/EfnXReEf+Xs/wC5/wCzVX/4R27/AOekH/fTf4VZs/8AiQB/th3mfG0Rc42+uceooA6GuV8V/wDIRj9PKH82rR/4SK0/55z/APfI/wAaq3ds+uSLdWbKiIvllZcg569s+ooA578R+ddp4f8A+QRb/wDAv/QjWL/wjt3/AM9IP++m/wAKu2+ow6TCtlcLI8sedxjA28nPGT70AbtcJqXGo3Wf+erfzNdF/wAJFaf885/++R/jVCXRbi8le5ikhEczGVdxIYBucGgDD/EfnXolcr/wjt3/AM9IP++m/wAK0f8AhIrT/nnP/wB8j/GgDR1H/kH3X/XJv5GuD/EfnXUyazb3cbW0SSq8wMallGATwM8+9UP+Edu/+ekH/fTf4UAVvD3/ACGIP+Bf+gmuzrmbbTptJmW9uWjaKLORGSW547/UVd/4SK0/55z/APfI/wAaADxX/wAg6P8A66j/ANBauU/EfnXS3dymuRfZrTckikSZk4BA4xxn1FVP+Edu/wDnpB/303+FAFjwj/y9n/c/9mroq56z/wCJAH+2HeZ8bRFzjb65x6irH/CRWn/POf8A75H+NAGd4r/5CMfp5Q/m1Yv4j866G7tn1yRbqzZURF8srLkHPXtn1FQf8I7d/wDPSD/vpv8ACgDa8P8A/IIt/wDgX/oRrQrCt9Rh0mFbK4WR5Y87jGBt5OeMn3qT/hIrT/nnP/3yP8aAOd1LjUbrP/PVv5mq34j863JdFuLyV7mKSERzMZV3EhgG5wab/wAI7d/89IP++m/woA6qq+o/8g+6/wCuTfyNZ3/CRWn/ADzn/wC+R/jTZNZt7uNraJJVeYGNSyjAJ4GefegDlvxH51o+Hv8AkMQf8C/9BNWf+Edu/wDnpB/303+FSW2nTaTMt7ctG0UWciMktzx3+ooA6asbxX/yDo/+uo/9Baj/AISK0/55z/8AfI/xqG7uU1yL7NabkkUiTMnAIHGOM+ooA5r8R+ddF4R/5ez/ALn/ALNVf/hHbv8A56Qf99N/hVmz/wCJAH+2HeZ8bRFzjb65x6igDoa5XxX/AMhGP08ofzatH/hIrT/nnP8A98j/ABqrd2z65It1ZsqIi+WVlyDnr2z6igDnvxH512nh/wD5BFv/AMC/9CNYv/CO3f8Az0g/76b/AAq7b6jDpMK2Vwsjyx53GMDbyc8ZPvQBu1wmpcajdZ/56t/M10X/AAkVp/zzn/75H+NUJdFuLyV7mKSERzMZV3EhgG5waAMP8R+deiVyv/CO3f8Az0g/76b/AArR/wCEitP+ec//AHyP8aANHUf+Qfdf9cm/ka4P8R+ddTJrNvdxtbRJKrzAxqWUYBPAzz71Q/4R27/56Qf99N/hQBW8Pf8AIYg/4F/6Ca7OuZttOm0mZb25aNoos5EZJbnjv9RV3/hIrT/nnP8A98j/ABoAPFf/ACDo/wDrqP8A0Fq5T8R+ddLd3Ka5F9mtNySKRJmTgEDjHGfUVU/4R27/AOekH/fTf4UAWPCP/L2f9z/2auirnrP/AIkAf7Yd5nxtEXONvrnHqKsf8JFaf885/wDvkf40AZ3iv/kIx+nlD+bVi/iPzrobu2fXJFurNlREXyysuQc9e2fUVB/wjt3/AM9IP++m/wAKANrw/wD8gi3/AOBf+hGtCsK31GHSYVsrhZHljzuMYG3k54yfepP+EitP+ec//fI/xoA53UuNRus/89W/marfiPzrcl0W4vJXuYpIRHMxlXcSGAbnBpv/AAjt3/z0g/76b/CgDqqKxv8AhIrT/nnP/wB8j/GigDlcVY07/kJWvr5q/wAxWz/wjP8A09f+Qv8A69L/AGH9i/0r7QXEH73YExnbzjrQB0NZ/iD/AJBFx/wH/wBCFZ3/AAkv/Tp/5E/+tSf2kNY/0ExeT5v8e7djHzdOPSgDnsVs+Ff+QjJ/1yP81qx/wjP/AE9f+Qv/AK9L9mGgZut/n7/3WzGzGec559KAOhrnfF3/AC6f8D/9lpf+El/6dP8AyJ/9ak48RD/n3MH/AAPO78vSgDnsV1XhT/kHy/8AXU/yFVv+EZ/6ev8AyF/9el+0/wBgYtdv2jf+8LZ247Yxz6UAdDXG+IP+QxP/AMB/9BFaP/CS/wDTp/5E/wDrUn9mDWP9P83yfN/g27sY468elAHPYru9O/5B9r/1yX+QrF/4Rn/p6/8AIX/16X+3PsR+yi33iD91uL4zjjPT2oA6GvPMV0X/AAkv/Tp/5E/+tSf8Iz/09f8AkL/69AGNp3/IStfXzV/mK7uue/sP7F/pX2guIP3uwJjO3nHWj/hJf+nT/wAif/WoA0fEH/IIuP8AgP8A6EK4zFdD/aQ1j/QTF5Pm/wAe7djHzdOPSj/hGf8Ap6/8hf8A16AK/hX/AJCMn/XI/wA1rqq577MNAzdb/P3/ALrZjZjPOc8+lH/CS/8ATp/5E/8ArUAJ4u/5dP8Agf8A7LXPYroePEQ/59zB/wADzu/L0o/4Rn/p6/8AIX/16ALPhT/kHy/9dT/IVs1z32n+wMWu37Rv/eFs7cdsY59KP+El/wCnT/yJ/wDWoAzvEH/IYn/4D/6CKzsV0P8AZg1j/T/N8nzf4Nu7GOOvHpR/wjP/AE9f+Qv/AK9AG1p3/IPtf+uS/wAhViue/tz7Efsot94g/dbi+M44z09qP+El/wCnT/yJ/wDWoA53FWNO/wCQla+vmr/MVs/8Iz/09f8AkL/69L/Yf2L/AEr7QXEH73YExnbzjrQB0NZ/iD/kEXH/AAH/ANCFZ3/CS/8ATp/5E/8ArUn9pDWP9BMXk+b/AB7t2MfN049KAOexWz4V/wCQjJ/1yP8ANasf8Iz/ANPX/kL/AOvS/ZhoGbrf5+/91sxsxnnOefSgDoa53xd/y6f8D/8AZaX/AISX/p0/8if/AFqTjxEP+fcwf8Dzu/L0oA57FdV4U/5B8v8A11P8hVb/AIRn/p6/8hf/AF6X7T/YGLXb9o3/ALwtnbjtjHPpQB0Ncb4g/wCQxP8A8B/9BFaP/CS/9On/AJE/+tSf2YNY/wBP83yfN/g27sY468elAHPYru9O/wCQfa/9cl/kKxf+EZ/6ev8AyF/9el/tz7Efsot94g/dbi+M44z09qAOhrzzFdF/wkv/AE6f+RP/AK1J/wAIz/09f+Qv/r0AY2nf8hK19fNX+Yru657+w/sX+lfaC4g/e7AmM7ecdaP+El/6dP8AyJ/9agDR8Qf8gi4/4D/6EK4zFdD/AGkNY/0ExeT5v8e7djHzdOPSj/hGf+nr/wAhf/XoAr+Ff+QjJ/1yP81rqq577MNAzdb/AD9/7rZjZjPOc8+lH/CS/wDTp/5E/wDrUAJ4u/5dP+B/+y1z2K6HjxEP+fcwf8Dzu/L0o/4Rn/p6/wDIX/16ALPhT/kHy/8AXU/yFbNc99p/sDFrt+0b/wB4Wztx2xjn0o/4SX/p0/8AIn/1qAM7xB/yGJ/+A/8AoIrOxXQ/2YNY/wBP83yfN/g27sY468elH/CM/wDT1/5C/wDr0AbWnf8AIPtf+uS/yFWK57+3PsR+yi33iD91uL4zjjPT2o/4SX/p0/8AIn/1qAOdxVjTv+Qla+vmr/MVs/8ACM/9PX/kL/69L/Yf2L/SvtBcQfvdgTGdvOOtAHQ1n+IP+QRcf8B/9CFZ3/CS/wDTp/5E/wDrUn9pDWP9BMXk+b/Hu3Yx83Tj0oA57FbPhX/kIyf9cj/Nasf8Iz/09f8AkL/69L9mGgZut/n7/wB1sxsxnnOefSgDoa53xd/y6f8AA/8A2Wl/4SX/AKdP/In/ANak48RD/n3MH/A87vy9KAOexXVeFP8AkHy/9dT/ACFVv+EZ/wCnr/yF/wDXpftP9gYtdv2jf+8LZ247Yxz6UAdDXG+IP+QxP/wH/wBBFaP/AAkv/Tp/5E/+tSf2YNY/0/zfJ83+Dbuxjjrx6UAc9iu707/kH2v/AFyX+QrF/wCEZ/6ev/IX/wBel/tz7Efsot94g/dbi+M44z09qAOhrzzFdF/wkv8A06f+RP8A61J/wjP/AE9f+Qv/AK9AGNp3/IStfXzV/mK7uue/sP7F/pX2guIP3uwJjO3nHWj/AISX/p0/8if/AFqANHxB/wAgi4/4D/6EK4zFdD/aQ1j/AEExeT5v8e7djHzdOPSj/hGf+nr/AMhf/XoAr+Ff+QjJ/wBcj/Na6que+zDQM3W/z9/7rZjZjPOc8+lH/CS/9On/AJE/+tQAni7/AJdP+B/+y1z2K6HjxEP+fcwf8Dzu/L0o/wCEZ/6ev/IX/wBegCz4U/5B8v8A11P8hWzXPfaf7Axa7ftG/wDeFs7cdsY59KP+El/6dP8AyJ/9agDO8Qf8hif/AID/AOgis7FdD/Zg1j/T/N8nzf4Nu7GOOvHpR/wjP/T1/wCQv/r0AbWnf8g+1/65L/IVYrnv7c+xH7KLfeIP3W4vjOOM9Paj/hJf+nT/AMif/WoA53FFdD/wjP8A09f+Qv8A69FAHRVX1H/kH3X/AFyb+Rrnf+Eiu/8AnnB+R/xp8WtXF5IttLHEEmPlMVyDg8cc+9AGFmtLw+P+JxB/wL/0E1s/8I7af89Lj/vof4VHPp0Okwte25keaL7okIxyQOcD3oA3axvFf/IPi/66j/0Fqzv+Eiu/+ecH5H/Gp7S5bXHa1u1CIq+YDFwSQQO+fWgDns10XhH/AJe/+Af+zVZ/4R20/wCelx/30P8ACq15/wASAILP5zPksZefu4xjGPU0AdFXK+K/+Qin/XIfzaj/AISK7/55wfkf8at2lumuxG5uyySITGBEcDGAe+fWgDms12fh7/kEW/8AwL/0I1X/AOEdtP8Anpcf99D/AAqlc6jLpMrWNqkZiixtMgJPPJzgj1oA6auE1L/kI3P/AF1b+ZrR/wCEiu/+ecH5H/Gr8ei214i3UjTLJOokYKwABIz6UActmvRKxv8AhHbT/npcf99D/Cs7/hIrv/nnB+R/xoA6LUf+Qfdf9cm/ka4PNbsWtXF5IttLHEEmPlMVyDg8cc+9Xv8AhHbT/npcf99D/CgDG8Pj/icQf8C/9BNdlWFPp0Okwte25keaL7okIxyQOcD3ql/wkV3/AM84PyP+NAGj4r/5B8X/AF1H/oLVyma6G0uW1x2tbtQiKvmAxcEkEDvn1q1/wjtp/wA9Lj/vof4UAVvCP/L3/wAA/wDZq6KudvP+JAEFn85nyWMvP3cYxjHqar/8JFd/884PyP8AjQAeK/8AkIp/1yH82rFzXS2lumuxG5uyySITGBEcDGAe+fWpv+EdtP8Anpcf99D/AAoAseHv+QRb/wDAv/QjWjXM3Ooy6TK1japGYosbTICTzyc4I9aj/wCEiu/+ecH5H/GgDO1L/kI3P/XVv5mq2a6mPRba8RbqRplknUSMFYAAkZ9Kd/wjtp/z0uP++h/hQBs1X1H/AJB91/1yb+Rrnf8AhIrv/nnB+R/xp8WtXF5IttLHEEmPlMVyDg8cc+9AGFmtLw+P+JxB/wAC/wDQTWz/AMI7af8APS4/76H+FRz6dDpMLXtuZHmi+6JCMckDnA96AN2sbxX/AMg+L/rqP/QWrO/4SK7/AOecH5H/ABqe0uW1x2tbtQiKvmAxcEkEDvn1oA57NdF4R/5e/wDgH/s1Wf8AhHbT/npcf99D/Cq15/xIAgs/nM+Sxl5+7jGMY9TQB0Vcr4r/AOQin/XIfzaj/hIrv/nnB+R/xq3aW6a7Ebm7LJIhMYERwMYB759aAOazXZ+Hv+QRb/8AAv8A0I1X/wCEdtP+elx/30P8KpXOoy6TK1japGYosbTICTzyc4I9aAOmrhNS/wCQjc/9dW/ma0f+Eiu/+ecH5H/Gr8ei214i3UjTLJOokYKwABIz6UActmvRKxv+EdtP+elx/wB9D/Cs7/hIrv8A55wfkf8AGgDotR/5B91/1yb+Rrg81uxa1cXki20scQSY+UxXIODxxz71e/4R20/56XH/AH0P8KAMbw+P+JxB/wAC/wDQTXZVhT6dDpMLXtuZHmi+6JCMckDnA96pf8JFd/8APOD8j/jQBo+K/wDkHxf9dR/6C1cpmuhtLltcdrW7UIir5gMXBJBA759atf8ACO2n/PS4/wC+h/hQBW8I/wDL3/wD/wBmroq528/4kAQWfzmfJYy8/dxjGMepqv8A8JFd/wDPOD8j/jQAeK/+Qin/AFyH82rFzXS2lumuxG5uyySITGBEcDGAe+fWpv8AhHbT/npcf99D/CgCx4e/5BFv/wAC/wDQjWjXM3Ooy6TK1japGYosbTICTzyc4I9aj/4SK7/55wfkf8aAM7Uv+Qjc/wDXVv5mq2a6mPRba8RbqRplknUSMFYAAkZ9Kd/wjtp/z0uP++h/hQBs1X1H/kH3X/XJv5Gud/4SK7/55wfkf8afFrVxeSLbSxxBJj5TFcg4PHHPvQBhZrS8Pj/icQf8C/8AQTWz/wAI7af89Lj/AL6H+FRz6dDpMLXtuZHmi+6JCMckDnA96AN2sbxX/wAg+L/rqP8A0Fqzv+Eiu/8AnnB+R/xqe0uW1x2tbtQiKvmAxcEkEDvn1oA57NdF4R/5e/8AgH/s1Wf+EdtP+elx/wB9D/Cq15/xIAgs/nM+Sxl5+7jGMY9TQB0Vcr4r/wCQin/XIfzaj/hIrv8A55wfkf8AGrdpbprsRubsskiExgRHAxgHvn1oA5rNdn4e/wCQRb/8C/8AQjVf/hHbT/npcf8AfQ/wqlc6jLpMrWNqkZiixtMgJPPJzgj1oA6auE1L/kI3P/XVv5mtH/hIrv8A55wfkf8AGr8ei214i3UjTLJOokYKwABIz6UActmvRKxv+EdtP+elx/30P8Kzv+Eiu/8AnnB+R/xoA6LUf+Qfdf8AXJv5GuDzW7FrVxeSLbSxxBJj5TFcg4PHHPvV7/hHbT/npcf99D/CgDG8Pj/icQf8C/8AQTXZVhT6dDpMLXtuZHmi+6JCMckDnA96pf8ACRXf/POD8j/jQBo+K/8AkHxf9dR/6C1cpmuhtLltcdrW7UIir5gMXBJBA759atf8I7af89Lj/vof4UAVvCP/AC9/8A/9mroq528/4kAQWfzmfJYy8/dxjGMepqv/AMJFd/8APOD8j/jQAeK/+Qin/XIfzasXNdLaW6a7Ebm7LJIhMYERwMYB759am/4R20/56XH/AH0P8KALHh7/AJBFv/wL/wBCNaNczc6jLpMrWNqkZiixtMgJPPJzgj1qP/hIrv8A55wfkf8AGgDO1L/kI3P/AF1b+Zqtmupj0W2vEW6kaZZJ1EjBWAAJGfSnf8I7af8APS4/76H+FAGzRXK/8JFd/wDPOD8j/jRQBi1Z07/kI2v/AF1X+Yrqv7F0/wD54f8Aj7f40y50yztoJbiGALLEhdDuJwQMjvQBqVneIP8AkEXH/Af/AEIVzv8AbWof8/H/AI4v+FWdOvrjULxLW8cSwSZ3KVA6DI5HuKAMWtnwp/yEX/65H+a1tf2Lp/8Azw/8fb/GqWqwx6TbLPp6+VK7BC2dxxgnvn0FAG9XO+Lv+XT/AIH/AOy1nf21qH/Px/44v+FaOkf8Tjzf7R/feVjZ/DjOc9MegoA52ur8Kf8AIPl/66n/ANBWrH9i6f8A88P/AB9v8aytVnk0m4W309vJiKbyMbskkjqc+goA6auM8Qf8hi4/4D/6CKP7a1D/AJ+P/HF/wra0+zt9RtI7q8j8yd87myVzgkDofQUAcpXeab/yD7X/AK5L/IVW/sXT/wDnh/4+3+Nc/faxdWMk0aThIYXMajYpwAcAdKAOxrzzB59qjPiTWb+fyLBpGYnpHEpYfXjj8a3I/CcU3zToqE9cuzN+POKAMrTriEahbEzRAeav8Y9RXdfa7b/n4h/77Fc//wAIhaphoZPLlHKvtJwfXGaX/hHL3/oMN/4DJQBe1+6t20i4AuISfl/jH94Vx32iD/nvD/38FdGfDM0o2XWpGaE9UMAGfxBpP+EPsv75/Nv/AIqgCt4WuIF1CQmeIDyj/GPUf4V1P2u2/wCfiH/vsVz48KJD81ldG3kPBYJuyPTk0v8Awjl5/wBBhv8AwGSgBviy5gb7LtnhON/8Y9v8K577RB/z3h/7+CuiPhbzv+P29Nxj7mY9u38jR/wh9l/fP5t/8VQBa8IyxvYShJEY+afusD2FblctL4XniG3Tr9IIyOY2h3gn1yTmsu7TxPpA3h/NhHVoAHA/4CRn9KALXiH/AJDE5/3f/QRWdW3os9nq1rHPqMam5kyDIGIDYOO3TjFbH9i6f/zw/wDH2/xoAs6b/wAg+1/65L/IVYrkbnVLy2uZYIZQsUTlEXYOADgdqi/trUP+fj/xxf8ACgDOqzp3/IRtf+uq/wAxXVf2Lp//ADw/8fb/ABplzplnbQS3EMAWWJC6HcTggZHegDUrO8Qf8gi4/wCA/wDoQrnf7a1D/n4/8cX/AAqzp19caheJa3jiWCTO5SoHQZHI9xQBi1s+FP8AkIv/ANcj/Na2v7F0/wD54f8Aj7f41S1WGPSbZZ9PXypXYIWzuOME98+goA3q53xd/wAun/A//Zazv7a1D/n4/wDHF/wrR0j/AInHm/2j++8rGz+HGc56Y9BQBztdX4U/5B8v/XU/yWrB0XTwCTBgD/po3+Ncxr2stpNwtroxEaOAx+XcSxJHAOfQUAdxXE+Ipol1mcNLGp+XgsB/CKjtLPxNqgD3E3kRHkeeoGfogHH41pJ4SikG+8nE1wfvSKhTP5NQBz/2iD/nvD/38Fdzp93bCwtQbiEHyl/jHpWR/wAIfZf3z+bf/FUf8I3dLhYdWaONeFXyFOB6daAOg+123/PxD/32K89+0Qf894f+/gro/wDhHLz/AKDDf+AyUn/CH2X98/m3/wAVQBi6dcQDULYmaIDzV/jHqK7r7Xbf8/EP/fYrn/8AhEbVMNDL5ci8q20nafXrS/8ACOXn/QYb/wABkoAva/dW7aRcAXEJPy/xj+8K47z4f+e0X/fYroz4ZmlGy61JpoT1QwAZ/EGm/wDCH2f97/0L/wCKoAZ4VBGoyZH/ACyP81rqq4298P3mmp52iKBNnaSj4bb9G49KyofFOqQSGG8kcMvXdEFYfUYoA6Xxd/y6f8D/APZa52uh0VhraSNfkTrHgxkfLjOc9MegrS/sXT/+eH/j7f40AV/Cn/IPl/66n/0Fa2a5nVZ5NJuFt9PbyYim8jG7JJI6nPoKpf21qH/Px/44v+FAB4g/5DFx/wAB/wDQRWdXV6fZ2+o2kd1eR+ZO+dzZK5wSB0PoKsf2Lp//ADw/8fb/ABoAs6b/AMg+1/65L/IVYrkbnVLy2uZYIZQsUTlEXYOADgdqi/trUP8An4/8cX/CgDOqzp3/ACEbX/rqv8xXVf2Lp/8Azw/8fb/GmXOmWdtBLcQwBZYkLodxOCBkd6ANSs7xB/yCLj/gP/oQrnf7a1D/AJ+P/HF/wqzp19caheJa3jiWCTO5SoHQZHI9xQBi1s+FP+Qi/wD1yP8ANa2v7F0//nh/4+3+NUtVhj0m2WfT18qV2CFs7jjBPfPoKAN6ud8Xf8un/A//AGWs7+2tQ/5+P/HF/wAK0dI/4nHm/wBo/vvKxs/hxnOemPQUAc7XV+FP+QfL/wBdT/6CtWP7F0//AJ4f+Pt/jWVqs8mk3C2+nt5MRTeRjdkkkdTn0FAHTVxniD/kMXH/AAH/ANBFH9tah/z8f+OL/hW1p9nb6jaR3V5H5k753NkrnBIHQ+goA5Su803/AJB9r/1yX+Qqt/Yun/8APD/x9v8AGsK51S8trmWCGULFE5RF2DgA4HagDrq87rR/trUP+fj/AMcX/Cui/sXT/wDnh/4+3+NAHK6d/wAhG1/66r/MV3dZdzplnbQS3EMAWWJC6HcTggZHesD+2tQ/5+P/ABxf8KAOi8Qf8gi4/wCA/wDoQrjK2tOvrjULxLW8cSwSZ3KVA6DI5HuK2f7F0/8A54f+Pt/jQBi+FP8AkIv/ANcj/Na6usHVYY9Jtln09fKldghbO44wT3z6Csr+2tQ/5+P/ABxf8KANHxd/y6f8D/8AZa52ui0j/iceb/aP77ysbP4cZznpj0FaP9i6f/zw/wDH2/xoAr+FP+QfL/11P/oK1s1zOqzyaTcLb6e3kxFN5GN2SSR1OfQVS/trUP8An4/8cX/CgA8Qf8hi4/4D/wCgis6ur0+zt9RtI7q8j8yd87myVzgkDofQVY/sXT/+eH/j7f40AWdN/wCQfa/9cl/kKsVyNzql5bXMsEMoWKJyiLsHABwO1Rf21qH/AD8f+OL/AIUAZ1Fdn/Yun/8APD/x9v8AGigDRqvqX/IOuv8Ark38jXGfbrv/AJ+rj/v4ansby5kvbdJLiZ0aRVZWckMM45oAz60fD/8AyGIP+Bf+gmur+w2n/PrB/wB+xVLWIIrXTJpbWKOGVcbXjUKRyBx+dAGrWN4r/wCQfH/11H/oLVzv267/AOfq4/7+GtPw/I95ePFdu06CPcFlO4AggZ5780AYddF4R63f/AP/AGatr7Daf8+sH/fsVi+I/wDQhbiz/wBHD7i3k/JuxjGcfU0AdFXKeK/+QjH/ANch/Nqz/t13/wA/Vx/38NdB4fVbyxd7tRO4kK7pRuOMA9/rQBy1dn4f/wCQPb/8C/8AQjVn7Daf8+sH/fsVzOs3E1vqUsUE0kUS7cIjFQOM9vrQB1U0iwxNI/3V5rzhbO68Ra/dRxZjt0lbe/aMZ7erGotb1S9zHbpczsWIO0SHJJOAK9B0SwGnadFCdpmwGlcD779zQA/S9OtdMtxDZxhF7k8s3uT3pmpaxp+mKDf3kMBPRWb5m+i9T+Fc1498VnSFFlp5H26RclyMiJfX3PoK8nld5pnmmd5JX5Z3bcWPvnr+leJj84jhpezpq8vwR7eX5NLEx9pUdo/iz2M+PfDwP/H7If8At3k/+Jo/4T3w9/z+yf8AgPJ/8TXjf+etH+eteV/b+J7R+5/5nr/6v4XvL71/keyf8J74e/5/ZP8AwHk/+Jo/4T3w9/z+yf8AgPJ/8TXjf+etH+etL+38T2j9z/zD/V/C95fev8j2T/hPfD3/AD+yf+A8n/xNH/Ce+Hv+f2T/AMB5P/ia8b/z1o/z1o/t/E9o/c/8w/1fwveX3r/I9k/4T3w9/wA/sn/gPJ/8TR/wnvh7/n9k/wDAeT/4mvG/89aP89aP7fxPaP3P/MP9X8L3l96/yParbxr4fuJBGuopG56ebG8Y/NgBXQRSxyoHidXQ9GU5Br517YrX8OeIL3QbkPbO0lsT+8t2b5WHqPQ11YfP5OVq8VbujlxPD8VG9CTv2f8Anoew6hpaOhe1VVl6lBwrf4Gm6NfFz9nmPzDhCevHY1b0q/h1Owhu7Zt0Uqhhkcj2Nch47guLC9g1C0mljjnYK4VyNrgEg/iAfyr6WMlJKUdmfMSi4txe6DUf+Qjdf9dW/marV2OlR217plrcSW8TvJGrMWjGScc/rVv7Daf8+sH/AH7FUIsVX1L/AJB11/1yb+RrjPt13/z9XH/fw1PY3lzJe26SXEzo0iqys5IYZxzQBn1o+H/+QxB/wL/0E11f2G0/59YP+/YqlrEEVrpk0trFHDKuNrxqFI5A4/OgDVrG8V/8g+P/AK6j/wBBaud+3Xf/AD9XH/fw1p+H5HvLx4rt2nQR7gsp3AEEDPPfmgDDrovCPW7/AOAf+zVtfYbT/n1g/wC/YrnvGM/9l2sJsv8ARzJuB8n5MnjHT6mgC7qt40832a3O5SduF/jPp9KtWGkW9vOLmVVlu9u3zCPuj0HpWF4CtJntX1G5kkcykpEGYkBQcE/UkGtnxJrUGhaa93OC5ztjjHV29Kic404ucnZIuEJVJKEFds0Lm4htYmluZo4olGWd2CgfUmsCXxx4fjkKfby5HXZDIw/MLivJdZ1W81m6M9/KX5ykf8EY/wBkf45qj/L2r5mvxBPmtRiref8AwLH0+H4ehy3ryd/L+meyf8J74e/5/ZP/AAHk/wDiaP8AhPfD3/P7J/4Dyf8AxNeN/wCetH+etYf2/ie0fuf+Z0f6v4XvL71/keyf8J74e/5/ZP8AwHk/+Jo/4T3w9/z+yf8AgPJ/8TXjf+etH+etL+38T2j9z/zD/V/C95fev8j2T/hPfD3/AD+yf+A8n/xNH/Ce+Hv+f2T/AMB5P/ia8b/z1o/z1o/t/E9o/c/8w/1fwveX3r/I9k/4T3w9/wA/sn/gPJ/8TSr478PMwH21hnpm3l/+Jrxr/PWj65x9af8Ab+J7R+5/5h/q/he8vvX+R9B2GoWeoReZY3UNwncxuGx9cdKra3o1pq8G2ddsoHyTKPmSvC7K6uLG5W5spngnXoyHr9R0P417D4K8SLr9kwlVY72HAlQdD6MPY17GX5tHFP2c1aX4M8XMconhF7SDvH8UZ3hgXOh6heWl4vy5TJHRhz8y+1duCCMjkVheMLKS60iSa2Z0ubcGRChwWA6r+I/XFcjouq3clts+1T5XGP3p6V7B450Hiv8A5CMf/XIfzasaup8Pqt5Yu92oncSFd0o3HGAe/wBa0/sNp/z6wf8AfsUAVvD/APyB7f8A4F/6Ea0a5HWbia31KWKCaSKJduERioHGe31ql9uu/wDn6uP+/hoANS/5CN1/11b+ZqtXb2dtBLZwPLBE7tGpZmQEk461L9htP+fWD/v2KALFV9S/5B11/wBcm/ka4z7dd/8AP1cf9/DU9jeXMl7bpJcTOjSKrKzkhhnHNAGfWj4f/wCQxB/wL/0E11f2G0/59YP+/YqlrEEVrpk0trFHDKuNrxqFI5A4/OgDVrG8V/8AIPj/AOuo/wDQWrnft13/AM/Vx/38Nafh+R7y8eK7dp0Ee4LKdwBBAzz35oAw66Lwj1u/+Af+zVtfYbT/AJ9YP+/YrF8R/wChC3Fn/o4fcW8n5N2MYzj6mgDoq5TxX/yEY/8ArkP5tWf9uu/+fq4/7+Gug8Pqt5Yu92oncSFd0o3HGAe/1oA5auz8P/8AIHt/+Bf+hGrP2G0/59YP+/YrmdZuJrfUpYoJpIol24RGKgcZ7fWgDrq4TUv+Qjdf9dW/maPt13/z9XH/AH8NddZ20EtnA8sETu0almZASTjrQBxFeiVX+w2n/PrB/wB+xXGfbrv/AJ+rj/v4aAOz1L/kHXX/AFyb+Rrg60LG8uZL23SS4mdGkVWVnJDDOOa6z7Daf8+sH/fsUAcp4f8A+QxB/wAC/wDQTXZ1laxBFa6ZNLaxRwyrja8ahSOQOPzrmft13/z9XH/fw0AdF4r/AOQfH/11H/oLVylbnh+R7y8eK7dp0Ee4LKdwBBAzz35roPsNp/z6wf8AfsUAYvhHrd/8A/8AZq6Kud8R/wChC3Fn/o4fcW8n5N2MYzj6msb7dd/8/Vx/38NAGh4r/wCQjH/1yH82rGrqfD6reWLvdqJ3EhXdKNxxgHv9a0/sNp/z6wf9+xQBW8P/APIHt/8AgX/oRrRrkdZuJrfUpYoJpIol24RGKgcZ7fWqX267/wCfq4/7+GgA1L/kI3X/AF1b+ZqtXb2dtBLZwPLBE7tGpZmQEk461L9htP8An1g/79igCxRXCfbrv/n6uP8Av4aKAK9WNN/5CNt/11X+Yru6r6j/AMg+5wcHym5/A0AWKzvEP/IHuP8AgP8A6EK4z8a0vD3/ACGIME/xfj8poAzq2fCv/IRk/wCuR/mP8K6qsbxX/wAg6MesoH6GgDZrnfF3/Lqe3z/0rnfxrovCP/L0O3y/1oA56uq8KjGnyZ/56n+QrZrlfFR/4mMfoIh/M0AdVXG+IQf7Yn4/u/8AoIrN/Guz8P8A/IIg/wCBf+hGgDz/AEaP7Z40tUdTsSVnPp8g+U/nivT5GCRsxOABk1zNlj/hKjgDrL2re1TjTrrH/PJv5VM3aLY4q8kjwTUL2TUtQub2bO+4cvgn7o/hH4Cq9Ni/1af7op1fnE5OUnJ7s/S4RUIqK2QUUUVJQUUUUAFFFFABRRRQAUUUUAeifCS/YSX2nyNleJox79G/XH511vjW3+0+Gb4AfNEnnL7bTu/kDXnvwq48UyD1tH/9DSvUdc/5Auof9e8n/oJr7bJpuWFjfofDZzBRxcrdbFHwexbRIQegwB7fKP65rbry/TT8tz/13bj8qufjXqnlC1Y03/kI23/XVf5iu7qvqP8AyD7nBwfKbn8DQBYrO8Q/8ge4/wCA/wDoQrjPxrS8Pf8AIYgwT/F+PymgDOrZ8K/8hGT/AK5H+Y/wrqqxvFf/ACDox6ygfoaANmuE+KUpjhsWzwolb9F/+vVb8aZcHFnOfRTj9KAO90u1Flptraj/AJYxKh9yBya8s+KF+1z4hFoGPl2iAbf9thkn8iPzr12vEfH3/I5ar/vx/wDopK8XPpuOGSXVo9vIIKWKbfRN/kYFFFFfHH2YUUUUAFFFFABRRRQAUUUUAFbPg6/fTvE1jKhO2WQQOB3VjgfkeaxqnsONRtCDgiaPB+jCtcPNwqxkujMcRBTpSi+qZ9DDkV5JZxiz127tEU+XHLLCv+6Dx+letL90fSuYsP8AkZ5x/wBNn/8AQTX6Kj83L/hUY06TPeUn9BWzXK+Kif7Qi7Dyh/M9qxfxpgaXiEH+2J+P7v8A6CKzq7Lw9/yCIP8AgX/oRrRoAr6d/wAg+2z18pf5CrFcJqP/ACEbr/rq2Pbn0qt+NAC1Y03/AJCNt/11X+Yru6r6j/yD7nBwfKbn8DQBYrO8Q/8AIHuP+A/+hCuM/GtLw9/yGIME/wAX4/KaAM6tnwr/AMhGT/rkf5j/AArqqxvFf/IOjHrKB+hoA2a53xd/y6nt8/8ASud/Gui8I/8AL0O3y/1oA56uq8KjGnyZ/wCep/kK2a5XxUf+JjH6CIfzNAHVVxviEH+2J+P7v/oIrN/Guz8Pf8giD/gX/oRoA42u707/AJB9tnr5S/yFWK4TUf8AkI3X/XVse3PpQB3deeUn416JQBwmm/8AIRtv+uq/zFd3VfUf+Qfc4OD5Tc/ga4P8aAOz8Q/8ge4/4D/6EK42tHw9/wAhiDBP8X4/Ka7KgDlfCv8AyEZP+uR/mP8ACuqrG8V/8g6MesoH6GuU/GgDovF3/Lqe3z/0rnq6Hwj/AMvQ7fL/AFroqAMbwqMafJn/AJ6n+QrZrlfFR/4mMfoIh/M1i/jQBpeIQf7Yn4/u/wDoIrOrsvD3/IIg/wCBf+hGtGgCvp3/ACD7bPXyl/kKsVwmo/8AIRuv+urY9ufSq340ALRXodFAFf7daf8AP1B/38FQ3tzBLZ3EcU8TyNGwVVcEk49K4n8v8/hVjTQP7RteBxMvP40AL9hu/wDn1n/79mrujW81vqUUtxFJFEucu6lQPlI6n6111Z3iHnR7jP8As/8AoQoAs/brT/n6g/7+CszxA63lkiWjLO6yBisR3EDB9PqK5b8v8/hW14Ux/aMvr5P9RQBnfYbv/n1n/wC/Zra8OD7ELg3n+jh9u3zflzjOev1FdDXO+Lv+XTpnL/0oA2vt1p/z9Qf9/BXP+II3vLxJLRGnj8sLujG4ZyeMj6isP8v8/hXV+FP+QdJ/11P8hQBzv2G7/wCfWf8A79mun0eeK202GK5lSGVc5SRgpGST0P1rUrjPEIH9sT9M/L/6CKAJtNuIZPFpWOWN2JmOFYHvXR6r/wAg26/65N/I1514R/5Hv8Jv516Lqv8AyDbr/rk38jUVPhZVP4kfPUf+rT/dFOpsf+rT/dFOr83P0xBRRRQAUUUUAFFFFABRRRQAUUUUAdf8K/8Aka3/AOvST/0OOvUNeYLoeosxwBbSEn/gJry/4V/8jW//AF6Sf+hx16T4s/5FXWf+vKb/ANANfZ5J/uq9WfEZ5/vb9EcVpFpcSxTvHBK6NMxBVCQRgH+oq/8AYbv/AJ9Z/wDv2a2/BA/4kEHbgf8AoK10FeweQV/t1p/z9Qf9/BUN7cwS2dxHFPE8jRsFVXBJOPSuJ/L/AD+FWNNA/tG14HEy8/jQAv2G7/59Z/8Av2au6NbzW+pRS3EUkUS5y7qVA+UjqfrXXVneIedHuM/7P/oQoAs/brT/AJ+oP+/grM8QOt5ZIloyzusgYrEdxAwfT6iuW/L/AD+FbXhTH9oy+vk/1FAGd9hu/wDn1n/79mqeqA2djL9rHkblbb5vy5xjPX6ivR689+L3/Hjad/km/ktAHoVeI+Pf+Rz1X/fj/wDRSV7dXiPj3/kc9V/34/8A0UleFn/+7x9f0Z7vD/8AvMv8L/NGBRRRXyJ9iFFFFABRRRQAUUUUAFFFFABU9h/yELT/AK7J/wChioKnsP8AkIWn/XZP/QxVU/iXqRV+F+h9Cr90fSuSs7q3TxVcq88SsJmBDOB/Ca61fuj6V5Rdgf8ACb6j6+e3b/Yr9IWx+aHYeII3vLuOW0Rp4xGFLRDcM56cfWsz7Dd/8+s//fs10XhX/kGuB2lI/QVs0wMvR54rbTYYrmVIZVzlJGCkZJPQ/Wrn260/5+oP+/grlPEIH9sT9M/L/wCgis78v8/hQBfvbS4lvbiSOCV0aRmVlQkEZPIPeofsN3/z6z/9+zXZad/yD7XH/PJP5CrNAFf7daf8/UH/AH8FQ3tzBLZ3EcU8TyNGwVVcEk49K4n8v8/hVjTQP7RteBxMvP40AL9hu/8An1n/AO/Zq7o1vNb6lFLcRSRRLnLupUD5SOp+tddWd4h50e4z/s/+hCgCz9utP+fqD/v4KzPEDreWSJaMs7rIGKxHcQMH0+orlvy/z+FbXhTH9oy+vk/1FAGd9hu/+fWf/v2a2vDg+xC4N5/o4fbt835c4znr9RXQ1zvi7/l06Zy/9KANr7daf8/UH/fwVz/iCN7y8SS0Rp4/LC7oxuGcnjI+orD/AC/z+FdX4U/5B0n/AF1P8hQBzv2G7/59Z/8Av2a6fR54rbTYYrmVIZVzlJGCkZJPQ/WtSuM8Qgf2xP0z8v8A6CKAOr+3Wn/P1B/38Fcle2lxLe3EkcEro0jMrKhIIyeQe9UPy/z+Fd3p3/IPtcf88k/kKAON+w3f/PrP/wB+zXZ/brT/AJ+oP+/gqxXnf5f5/CgDtr25gls7iOKeJ5GjYKquCScelcl9hu/+fWf/AL9mk00D+0bXgcTLz+Nd5QByOjW81vqUUtxFJFEucu6lQPlI6n6103260/5+oP8Av4KreIedHuM/7P8A6EK4z8v8/hQB1PiB1vLJEtGWd1kDFYjuIGD6fUVz/wBhu/8An1n/AO/ZrR8KY/tGX18n+orqqAOe8OD7ELg3n+jh9u3zflzjOev1FbP260/5+oP+/grF8Xf8unTOX/pXO/l/n8KANzxBG95eJJaI08flhd0Y3DOTxkfUVmfYbv8A59Z/+/ZrovCn/IOk/wCup/kK2aAMvR54rbTYYrmVIZVzlJGCkZJPQ/Wrn260/wCfqD/v4K5TxCB/bE/TPy/+gis78v8AP4UAX720uJb24kjgldGkZlZUJBGTyD3qH7Dd/wDPrP8A9+zXZad/yD7XH/PJP5CrNAFf7daf8/UH/fwUVwf5f5/CigDR/sXUP+ff/wAfX/GpbbS7y2uYp5odsUTh3bcDgAgk8H2rrqr6j/yD7r/rk38jQBW/trT/APn4/wDHG/wqvqF7b6jZyWtnJ5k8mNq7SM4IJ5PHQVyn4j860fD3/IYg/wCBf+gmgA/sXUP+ff8A8fX/ABq7pUEmk3Jn1BfJiZCgbO75sg44z6GumrG8V/8AIOj/AOuo/wDQWoAsf21p/wDz8f8Ajjf4Vnav/wATgxf2d++8rO/+HGcY649DXO/iPzrovCP/AC9n/c/9moAzv7F1D/n3/wDH1/xrV0qePSbd4NQbyZWfeFxu+XAGeM+hrerlfFf/ACEY/Tyh/NqANn+2tP8A+fj/AMcb/CsbULK41G8kurOPzIJMbW3AZwMHg89RWL+I/Ou08P8A/IIt/wDgX/oRoA4nw1YXNv433zR7VxMM7gf613mq/wDINuv+uTfyNYFl/wAjYfrLW/qv/INuv+uTfyNRU+FlU/iR89R/6tP90U6mx/6tP90U6vzc/TEFFFFABRRRQAUUUUAFFFFABRRRQB1/wr/5Gt/+vST/ANDjr0vxQjSeGtXRBlmtJgB6nYa80+Ff/I1v/wBekn/ocdeo65/yBdQ/695P/QTX2eSf7qvVnxGef72/RGB4R1O0ttISGebbJGdrDaTghQD0HtW3/bWn/wDPx/443+Fef6b0uP8Aru9XfxH517B5Bo/2LqH/AD7/APj6/wCNS22l3ltcxTzQ7YonDu24HABBJ4PtXXVX1H/kH3X/AFyb+RoArf21p/8Az8f+ON/hVfUL231GzktbOTzJ5MbV2kZwQTyeOgrlPxH51o+Hv+QxB/wL/wBBNAB/Yuof8+//AI+v+NXdKgk0m5M+oL5MTIUDZ3fNkHHGfQ101Y3iv/kHR/8AXUf+gtQBY/trT/8An4/8cb/CuM+JLDVrKH+zz5vlpLv/AIcZ24649DR+I/OmXX/HjP8A7poA9HrxHx7/AMjnqv8Avx/+ikr26vEfHv8AyOeq/wC/H/6KSvCz/wD3ePr+jPd4f/3mX+F/mjAooor5E+xCiiigAooooAKKKKACiiigAqew/wCQhaf9dk/9DFQVPYf8hC0/67J/6GKqn8S9SKvwv0PoVfuj6V5nLpt3P4zvnii3K07EHcB/B9a9MX7o+lcvYf8AI03H/XVv/QTX6Qtj80LekzR6TbvBqDeTKzmQLjdlcAZ4z3Bq7/bWn/8APx/443+FY3ir/kIRf9ch/wChGsX8R+dMDa1CyuNRvJLqzj8yCTG1twGcDB4PPUVW/sXUP+ff/wAfX/Guj8P/APIIt/8AgX/oRrQoAyrbVLO2t4oJptssShHXaTggYI4HtUn9taf/AM/H/jjf4VyupcajdZ/56t/M1W/EfnQBo/2LqH/Pv/4+v+NS22l3ltcxTzQ7YonDu24HABBJ4PtXXVX1H/kH3X/XJv5GgCt/bWn/APPx/wCON/hVfUL231GzktbOTzJ5MbV2kZwQTyeOgrlPxH51o+Hv+QxB/wAC/wDQTQAf2LqH/Pv/AOPr/jV3SoJNJuTPqC+TEyFA2d3zZBxxn0NdNWN4r/5B0f8A11H/AKC1AFj+2tP/AOfj/wAcb/Cs7V/+JwYv7O/feVnf/DjOMdcehrnfxH510XhH/l7P+5/7NQBnf2LqH/Pv/wCPr/jWrpU8ek27wag3kys+8Ljd8uAM8Z9DW9XK+K/+QjH6eUP5tQBs/wBtaf8A8/H/AI43+FY2oWVxqN5JdWcfmQSY2tuAzgYPB56isX8R+ddp4f8A+QRb/wDAv/QjQBzn9i6h/wA+/wD4+v8AjW9bapZ21vFBNNtliUI67ScEDBHA9q1a4TUuNRus/wDPVv5mgDqv7a0//n4/8cb/AArnf7F1D/n3/wDH1/xrO/EfnXolAHI22l3ltcxTzQ7YonDu24HABBJ4PtW7/bWn/wDPx/443+FWdR/5B91/1yb+Rrg/xH50AdXqF7b6jZyWtnJ5k8mNq7SM4IJ5PHQVi/2LqH/Pv/4+v+NHh7/kMQf8C/8AQTXZ0AczpUEmk3Jn1BfJiZCgbO75sg44z6GtX+2tP/5+P/HG/wAKr+K/+QdH/wBdR/6C1cp+I/OgDotX/wCJwYv7O/feVnf/AA4zjHXHoazv7F1D/n3/APH1/wAa0fCP/L2f9z/2auioAwdKnj0m3eDUG8mVn3hcbvlwBnjPoau/21p//Px/443+FY3iv/kIx+nlD+bVi/iPzoA2tQsrjUbyS6s4/MgkxtbcBnAweDz1FVv7F1D/AJ9//H1/xro/D/8AyCLf/gX/AKEa0KAMq21SztreKCabbLEoR12k4IGCOB7VJ/bWn/8APx/443+FcrqXGo3Wf+erfzNVvxH50AaP9i6h/wA+/wD4+v8AjRXZ0UAY3/CRWn/POf8A75H+NNk1m3u42toklV5gY1LKMAngZ5965fFWNO/5CVr6+av8xQBo/wDCO3f/AD0g/wC+m/wqS206bSZlvblo2iizkRklueO/1FdNWf4g/wCQRcf8B/8AQhQBW/4SK0/55z/98j/Gobu5TXIvs1puSRSJMycAgcY4z6iubxWz4V/5CMn/AFyP81oAP+Edu/8AnpB/303+FWbP/iQB/th3mfG0Rc42+uceoroa53xd/wAun/A//ZaALP8AwkVp/wA85/8Avkf41Vu7Z9ckW6s2VERfLKy5Bz17Z9RXP4rqvCn/ACD5f+up/kKAM7/hHbv/AJ6Qf99N/hV231GHSYVsrhZHljzuMYG3k54yfet2uN8Qf8hif/gP/oIoAi0bU4bvxkY40kDfvjlgMda63Vf+Qbdf9cm/ka868I/8j3+E3869F1X/AJBt1/1yb+RqKnwsqn8SPnqP/Vp/uinU2P8A1af7op1fm5+mIKKKKACiiigAooooAKKKKACiiigDr/hX/wAjW/8A16Sf+hx16d4ikEXh/U5GzhLWVjj2Q15j8K/+Rrf/AK9JP/Q469J8Wf8AIraz/wBeU3/oBr7PJP8AdV6s+Izz/e36I5bw/o1xeWT3ETxKkspcBiQcEA4Nan/CO3f/AD0g/wC+m/wq34J/5AMH4f8AoC1v17B5Bjf8JFaf885/++R/jTZNZt7uNraJJVeYGNSyjAJ4GefeuXxVjTv+Qla+vmr/ADFAGj/wjt3/AM9IP++m/wAKkttOm0mZb25aNoos5EZJbnjv9RXTVn+IP+QRcf8AAf8A0IUAVv8AhIrT/nnP/wB8j/Gobu5TXIvs1puSRSJMycAgcY4z6iubxWz4V/5CMn/XI/zWgA/4R27/AOekH/fTf4Vh+Kk/sOxP2vEnmo+3y+fu465+or0avPfi9/x42n+5N/JKAPQq8R8e/wDI56r/AL8f/opK9urxHx7/AMjnqv8Avx/+ikrws/8A93j6/oz3eH/95l/hf5owKKKK+RPsQooooAKKKKACiiigAooooAKnsP8AkIWn/XZP/QxUFT2H/IQtP+uyf+hiqp/EvUir8L9D6FX7o+lcLFq9vbeLruN1lLJM+doHPyH3rul+6PpXlF3/AMjtqJ/6bt/6BX6Qtj80O0urZ9ckFzaMqIi+UfN4OevbPqKh/wCEdu/+ekH/AH03+FaHhT/kHS/9dT/6CtbVMDCt9Rh0mFbK4WR5Y87jGBt5OeMn3qT/AISK0/55z/8AfI/xrG8Qf8hif/gP/oIrOxQBty6LcXkr3MUkIjmYyruJDANzg03/AIR27/56Qf8AfTf4V0Wnf8g+1/65L/IVYoAxv+EitP8AnnP/AN8j/Gmyazb3cbW0SSq8wMallGATwM8+9cvirGnf8hK19fNX+YoA0f8AhHbv/npB/wB9N/hUltp02kzLe3LRtFFnIjJLc8d/qK6as/xB/wAgi4/4D/6EKAK3/CRWn/POf/vkf41Dd3Ka5F9mtNySKRJmTgEDjHGfUVzeK2fCv/IRk/65H+a0AH/CO3f/AD0g/wC+m/wqzZ/8SAP9sO8z42iLnG31zj1FdDXO+Lv+XT/gf/stAFn/AISK0/55z/8AfI/xqrd2z65It1ZsqIi+WVlyDnr2z6iufxXVeFP+QfL/ANdT/IUAZ3/CO3f/AD0g/wC+m/wq7b6jDpMK2Vwsjyx53GMDbyc8ZPvW7XG+IP8AkMT/APAf/QRQBs/8JFaf885/++R/jVCXRbi8le5ikhEczGVdxIYBucGsTFd3p3/IPtf+uS/yFAHO/wDCO3f/AD0g/wC+m/wrR/4SK0/55z/98j/GtmvPMUAdRJrNvdxtbRJKrzAxqWUYBPAzz71Q/wCEdu/+ekH/AH03+FZ2nf8AIStfXzV/mK7ugDmbbTptJmW9uWjaKLORGSW547/UVd/4SK0/55z/APfI/wAas+IP+QRcf8B/9CFcZigDpLu5TXIvs1puSRSJMycAgcY4z6iqn/CO3f8Az0g/76b/AAo8K/8AIRk/65H+a11VAHPWf/EgD/bDvM+Noi5xt9c49RVj/hIrT/nnP/3yP8areLv+XT/gf/stc9igDoLu2fXJFurNlREXyysuQc9e2fUVB/wjt3/z0g/76b/CtHwp/wAg+X/rqf5CtmgDCt9Rh0mFbK4WR5Y87jGBt5OeMn3qT/hIrT/nnP8A98j/ABrG8Qf8hif/AID/AOgis7FAG3LotxeSvcxSQiOZjKu4kMA3ODTf+Edu/wDnpB/303+FdFp3/IPtf+uS/wAhVigDG/4SK0/55z/98j/GiuVxRQB0P/CM/wDT1/5C/wDr0v8AYf2L/SvtBcQfvdgTGdvOOtdDVfUf+Qfdf9cm/kaAMb/hJf8Ap0/8if8A1qT+0hrH+gmLyfN/j3bsY+bpx6Vzua0vD4/4nEH/AAL/ANBNAGh/wjP/AE9f+Qv/AK9L9mGgZut/n7/3WzGzGec559K6GsbxX/yD4v8ArqP/AEFqAK//AAkv/Tp/5E/+tSceIh/z7mD/AIHnd+XpXO5rovCP/L3/AMA/9moAP+EZ/wCnr/yF/wDXpftP9gYtdv2jf+8LZ247Yxz6V0Ncr4r/AOQin/XIfzagCz/wkv8A06f+RP8A61J/Zg1j/T/N8nzf4Nu7GOOvHpXO5rs/D3/IIt/+Bf8AoRoA5TQtK+yeNDL52/8A1wxtxXZar/yDbr/rk38jWBZf8jYf96Wt/Vf+Qbdf9cm/kaip8LKp/Ej56j/1af7op1Nj/wBWn+6KdX5ufpiCiiigAooooAKKKKACiiigAooooA6/4V/8jW//AF6Sf+hx16b4kj87w7qkWcb7WVc/VCK8y+Ff/I1v/wBekn/ocdeo65/yBNQ/695P/QTX2eSf7qvVnxGef72/RHKeG9b+xaebb7Pv8pym7fjOFA9PY1r/APCS/wDTp/5E/wDrVyGm8C4/67vVzNeweQdF/wAIz/09f+Qv/r0v9h/Yv9K+0FxB+92BMZ284610NV9R/wCQfdf9cm/kaAMb/hJf+nT/AMif/WpP7SGsf6CYvJ83+Pduxj5unHpXO5rS8Pj/AInEH/Av/QTQBof8Iz/09f8AkL/69L9mGgZut/n7/wB1sxsxnnOefSuhrG8V/wDIPi/66j/0FqAK/wDwkv8A06f+RP8A61c340f+3rFePs/kpJ/t53Bfp6GlzTLr/jxn/wB00Aej14j49/5HPVf9+P8A9FJXt1eI+Pf+Rz1X/fj/APRSV4Wf/wC7x9f0Z7vD/wDvMv8AC/zRgUUUV8ifYhRRRQAUUUUAFFFFABRRRQAVPYf8hC0/67J/6GKgqew/5CFp/wBdk/8AQxVU/iXqRV+F+h9Cr90fSuATRRc+L7yTz9heZzjZn+Cu/X7o+lcvYD/iqrj/AK6t/wCgmv0hbH5oWPtP9gAWoT7QXHm7iduO2O/pR/wkv/Tp/wCRP/rVW8VH/iYRf9ch/wChGsXNMDov7MGsf6f5vk+b/Bt3Yxx149KP+EZ/6ev/ACF/9etHw9/yCLf/AIF/6Ea0aAOe/tz7Efsot94g/dbi+M44z09qP+El/wCnT/yJ/wDWrF1L/kI3P/XVv5mq2aAOi/4Rn/p6/wDIX/16X+w/sX+lfaC4g/e7AmM7ecda6Gq+o/8AIPuv+uTfyNAGN/wkv/Tp/wCRP/rUn9pDWP8AQTF5Pm/x7t2MfN049K53NaXh8f8AE4g/4F/6CaAND/hGf+nr/wAhf/Xpfsw0DN1v8/f+62Y2YzznPPpXQ1jeK/8AkHxf9dR/6C1AFf8A4SX/AKdP/In/ANak48RD/n3MH/A87vy9K53NdF4R/wCXv/gH/s1AB/wjP/T1/wCQv/r0v2n+wMWu37Rv/eFs7cdsY59K6GuV8V/8hFP+uQ/m1AFn/hJf+nT/AMif/WpP7MGsf6f5vk+b/Bt3Yxx149K53Ndn4e/5BFv/AMC/9CNAGd/wjP8A09f+Qv8A69L/AG59iP2UW+8QfutxfGccZ6e1dDXCal/yEbn/AK6t/M0AbX/CS/8ATp/5E/8ArUn/AAjP/T1/5C/+vXO5r0SgDnv7D+xf6V9oLiD97sCYzt5x1o/4SX/p0/8AIn/1q2dR/wCQfdf9cm/ka4PNAHRf2kNY/wBBMXk+b/Hu3Yx83Tj0o/4Rn/p6/wDIX/16z/D4/wCJxB/wL/0E12VAHPfZhoGbrf5+/wDdbMbMZ5znn0o/4SX/AKdP/In/ANarHiv/AJB8X/XUf+gtXKZoA6LjxEP+fcwf8Dzu/L0o/wCEZ/6ev/IX/wBejwj/AMvf/AP/AGauioA577T/AGBi12/aN/7wtnbjtjHPpR/wkv8A06f+RP8A61VvFf8AyEU/65D+bVi5oA6L+zBrH+n+b5Pm/wAG3djHHXj0o/4Rn/p6/wDIX/160fD3/IIt/wDgX/oRrRoA57+3PsR+yi33iD91uL4zjjPT2o/4SX/p0/8AIn/1qxdS/wCQjc/9dW/marZoA6L/AIRn/p6/8hf/AF6K6KigDlf+Eiu/+ecH5H/Gnxa1cXki20scQSY+UxXIODxxz71hVZ07/kI2v/XVf5igDov+EdtP+elx/wB9D/Co59Oh0mFr23MjzRfdEhGOSBzge9btZ3iD/kEXH/Af/QhQBjf8JFd/884PyP8AjU9pctrjta3ahEVfMBi4JIIHfPrXPVs+FP8AkIv/ANcj/NaANL/hHbT/AJ6XH/fQ/wAKrXn/ABIAgs/nM+Sxl5+7jGMY9TXRVzvi7/l0/wCB/wDstAFf/hIrv/nnB+R/xq3aW6a7Ebm7LJIhMYERwMYB759a5qur8Kf8g+X/AK6n/wBBWgA/4R20/wCelx/30P8ACqVzqMukytY2qRmKLG0yAk88nOCPWumrjPEH/IYuP+A/+gigCj4e1Oa78bGOVIwP3x+UV2+q/wDINuv+uTfyNedeEf8Ake/+Azfzr0XVf+Qbdf8AXJv5GoqfCyqfxI+eo/8AVp/uinU2P/Vp/uinV+bn6YgooooAKKKKACiiigAooooAKKKKAOv+Ff8AyNb/APXpJ/6HHXpniaQxeG9VkXqlpKw/BDXmfwr/AORrf/r0k/8AQ469J8Wf8itrP/XlN/6Aa+zyT/dV6s+Izz/e36Iw/C2jW15pYuJXlWSV95CkAAkA8cVsf8I7af8APS4/76H+FQ+CeNBg98f+grW/XsHkHK/8JFd/884PyP8AjT4tauLyRbaWOIJMfKYrkHB44596wqs6d/yEbX/rqv8AMUAdF/wjtp/z0uP++h/hUc+nQ6TC17bmR5ovuiQjHJA5wPet2s7xB/yCLj/gP/oQoAxv+Eiu/wDnnB+R/wAantLltcdrW7UIir5gMXBJBA759a56tnwp/wAhF/8Arkf5rQBpf8I7af8APS4/76H+Fcp4+UaHYx/ZMt5ySZ83nG3b0xj1r0SvPfi9/wAeNp/uTf8AslAHoVeI+Pf+Rz1X/fj/APRSV7dXiPj3/kc9V/34/wD0UleFn/8Au8fX9Ge7w/8A7zL/AAv80YFFFFfIn2IUUUUAFFFFABRRRQAUUUUAFT2H/IQtP+uyf+hioKnsP+Qhaf8AXZP/AEMVVP4l6kVfhfofQq/dH0rzk6xPbeMb5EjiISZwCR/sV6Mv3R9K8ouwT421HA/5bt/6BX6Qtj80O5tLdNdhNxdlkkQ+UPKOBjAPfPrU3/CO2n/PS4/76H+FJ4U/5B8v/XU/+grW1TA5m51GXSZWsbVIzFFjaZASeeTnBHrUf/CRXf8Azzg/I/41W8Qf8hi4/wCA/wDoIrOoA6mPRba8RbqRplknUSMFYAAkZ9Kd/wAI7af89Lj/AL6H+FaOm/8AIPtf+uS/yFWKAOV/4SK7/wCecH5H/Gnxa1cXki20scQSY+UxXIODxxz71hVZ07/kI2v/AF1X+YoA6L/hHbT/AJ6XH/fQ/wAKjn06HSYWvbcyPNF90SEY5IHOB71u1neIP+QRcf8AAf8A0IUAY3/CRXf/ADzg/I/41PaXLa47Wt2oRFXzAYuCSCB3z61z1bPhT/kIv/1yP81oA0v+EdtP+elx/wB9D/Cq15/xIAgs/nM+Sxl5+7jGMY9TXRVzvi7/AJdP+B/+y0AV/wDhIrv/AJ5wfkf8at2lumuxG5uyySITGBEcDGAe+fWuarq/Cn/IPl/66n/0FaAD/hHbT/npcf8AfQ/wqlc6jLpMrWNqkZiixtMgJPPJzgj1rpq4zxB/yGLj/gP/AKCKALP/AAkV3/zzg/I/41fj0W2vEW6kaZZJ1EjBWAAJGfSuWrvNN/5B9r/1yX+QoAzv+EdtP+elx/30P8Kzv+Eiu/8AnnB+R/xrqq87oA3YtauLyRbaWOIJMfKYrkHB44596vf8I7af89Lj/vof4Vzunf8AIRtf+uq/zFd3QBhT6dDpMLXtuZHmi+6JCMckDnA96pf8JFd/884PyP8AjWz4g/5BFx/wH/0IVxlAHQ2ly2uO1rdqERV8wGLgkggd8+tWv+EdtP8Anpcf99D/AArN8Kf8hF/+uR/mtdXQBzt5/wASAILP5zPksZefu4xjGPU1X/4SK7/55wfkf8aseLv+XT/gf/stc7QB0tpbprsRubsskiExgRHAxgHvn1qb/hHbT/npcf8AfQ/wo8Kf8g+X/rqf/QVrZoA5m51GXSZWsbVIzFFjaZASeeTnBHrUf/CRXf8Azzg/I/41W8Qf8hi4/wCA/wDoIrOoA6mPRba8RbqRplknUSMFYAAkZ9Kd/wAI7af89Lj/AL6H+FaOm/8AIPtf+uS/yFWKAOV/4SK7/wCecH5H/GisWigDs/7F0/8A54f+Pt/jTLnTLO2gluIYAssSF0O4nBAyO9alV9S/5B11/wBcm/kaAOU/trUP+fj/AMcX/CrOnX1xqF4lreOJYJM7lKgdBkcj3FYtaPh//kMQf8C/9BNAHRf2Lp//ADw/8fb/ABqlqsMek2yz6evlSuwQtnccYJ759BW9WN4r/wCQfH/11H/oLUAYv9tah/z8f+OL/hWjpH/E483+0f33lY2fw4znPTHoK52ui8I9bv8A4B/7NQBo/wBi6f8A88P/AB9v8aytVnk0m4W309vJiKbyMbskkjqc+grpq5TxX/yEY/8ArkP5tQBX/trUP+fj/wAcX/CtrT7O31G0juryPzJ3zubJXOCQOh9BXKV2fh//AJA9v/wL/wBCNAHPaVYW1t4wLwxbGzKM5rqNV/5Bt1/1yb+RrAsv+RsP1lrf1X/kG3X/AFyb+RqKnwsqn8SPnqP/AFaf7op1Nj/1af7op1fm5+mIKKKKACiiigAooooAKKKKACiiigDr/hX/AMjW/wD16Sf+hx16f4gQSaDqSN91raUH/vk15h8K/wDka3/69JP/AEOOvUdc/wCQLqH/AF7yf+gmvs8k/wB1Xqz4jPP97fojiND1O7traWGCbbHHMyqNoPAAHpWj/bWof8/H/ji/4Vg6Z0ufad/6f4irteweQdn/AGLp/wDzw/8AH2/xplzplnbQS3EMAWWJC6HcTggZHetSq+pf8g66/wCuTfyNAHKf21qH/Px/44v+FWdOvrjULxLW8cSwSZ3KVA6DI5HuKxa0fD//ACGIP+Bf+gmgDov7F0//AJ4f+Pt/jVLVYY9Jtln09fKldghbO44wT3z6Ct6sbxX/AMg+P/rqP/QWoAxf7a1D/n4/8cX/AArM19jqtg/28+b5avt/hxnGen0p1R3XNlcY/umgD0ivEfHv/I56r/vx/wDopK9urxHx7/yOeq/78f8A6KSvCz//AHePr+jPd4f/AN5l/hf5owKKKK+RPsQooooAKKKKACiiigAooooAKnsP+Qhaf9dk/wDQxUFT2H/IQtP+uyf+hiqp/EvUir8L9D6FX7o+lcXb6bZz+LLp5oQzNM5J3EfwV2i/dH0rl7Af8VTcf9dW/wDQTX6Qtj80H6rPJpM6W+nkQxFN5XG7JJI6n6CqX9tah/z8f+OL/hVnxV/yEYv+uI/9CNYtMDq9Ps7fUbSO6vI/MnfO5slc4JA6H0FWP7F0/wD54f8Aj7f40eH/APkD2/8AwL/0I1o0Acjc6peW1zLBDKFiicoi7BwAcDtUX9tah/z8f+OL/hVfUv8AkI3X/XVv5mq1AHZ/2Lp//PD/AMfb/GmXOmWdtBLcQwBZYkLodxOCBkd61Kr6l/yDrr/rk38jQByn9tah/wA/H/ji/wCFWdOvrjULxLW8cSwSZ3KVA6DI5HuKxa0fD/8AyGIP+Bf+gmgDov7F0/8A54f+Pt/jVLVYY9Jtln09fKldghbO44wT3z6Ct6sbxX/yD4/+uo/9BagDF/trUP8An4/8cX/CtHSP+Jx5v9o/vvKxs/hxnOemPQVztdF4R63f/AP/AGagDR/sXT/+eH/j7f41larPJpNwtvp7eTEU3kY3ZJJHU59BXTVyniv/AJCMf/XIfzagCv8A21qH/Px/44v+FbWn2dvqNpHdXkfmTvnc2SucEgdD6CuUrs/D/wDyB7f/AIF/6EaAD+xdP/54f+Pt/jWFc6peW1zLBDKFiicoi7BwAcDtXXVwmpf8hG6/66t/M0AWP7a1D/n4/wDHF/wrov7F0/8A54f+Pt/jXGV6JQBl3OmWdtBLcQwBZYkLodxOCBkd6wP7a1D/AJ+P/HF/wrq9S/5B11/1yb+Rrg6ANrTr641C8S1vHEsEmdylQOgyOR7itn+xdP8A+eH/AI+3+Nc74f8A+QxB/wAC/wDQTXZ0AYOqwx6TbLPp6+VK7BC2dxxgnvn0FZX9tah/z8f+OL/hW14r/wCQfH/11H/oLVylAHRaR/xOPN/tH995WNn8OM5z0x6CtH+xdP8A+eH/AI+3+NZ3hHrd/wDAP/Zq6KgDmdVnk0m4W309vJiKbyMbskkjqc+gql/bWof8/H/ji/4VY8V/8hGP/rkP5tWNQB1en2dvqNpHdXkfmTvnc2SucEgdD6CrH9i6f/zw/wDH2/xo8P8A/IHt/wDgX/oRrRoA5G51S8trmWCGULFE5RF2DgA4Haov7a1D/n4/8cX/AAqvqX/IRuv+urfzNVqAOz/sXT/+eH/j7f40Vo0UAcJ9uu/+fq4/7+Gp7G8uZL23SS4mdGkVWVnJDDOOaoVY03/kI23/AF1X+YoA7P7Daf8APrB/37FUtYgitdMmltYo4ZVxteNQpHIHH51q1neIf+QPcf8AAf8A0IUAcr9uu/8An6uP+/hrT8PyPeXjxXbtOgj3BZTuAIIGee/NYlbPhX/kIyf9cj/Mf4UAdF9htP8An1g/79isXxH/AKELcWf+jh9xbyfk3YxjOPqa6Kud8Xf8up7fP/SgDG+3Xf8Az9XH/fw10Hh9VvLF3u1E7iQrulG44wD3+tcvXVeFRjT5M/8APU/yFAGj9htP+fWD/v2K5nWbia31KWKCaSKJduERioHGe31rrq43xCD/AGxPx/d/9BFAGP4VuJpPHO2SV2XExwzZr0DVf+Qbdf8AXJv5GvOvCQP/AAnfTtNXouq/8g26/wCuTfyNRU+FlU/iR89R/wCrT/dFOpsf+rT/AHRTq/Nz9MQUUUUAFFFFABRRRQAUUUUAFFFFAHX/AAr/AORrf/r0k/8AQ469K8VEr4X1gqcMLOYg/wDADXmvwr/5Gt/+vST/ANDjr0rxXz4W1jH/AD5zf+gGvs8k/wB1Xqz4jPP97fojN8G2lvLokTywRO7clmQEklV68VvfYbT/AJ9YP+/YrI8E/wDIBh/D/wBBWt+vYPIOE+3Xf/P1cf8Afw1PY3lzJe26SXEzo0iqys5IYZxzVCrGm/8AIRtv+uq/zFAHZ/YbT/n1g/79iqWsQRWumTS2sUcMq42vGoUjkDj861azvEP/ACB7j/gP/oQoA5X7dd/8/Vx/38Nafh+R7y8eK7dp0Ee4LKdwBBAzz35rErZ8K/8AIRk/65H+Y/woA6L7Daf8+sH/AH7FcJ8VB9ksrf7IBBuSYt5Xy7uF64r0OvPfi9/x5Wv+5N/7JQB6FXiPj3/kc9V/34//AEUle3V4j49/5HPVf9+P/wBFJXhZ/wD7vH1/Rnu8P/7zL/C/zRgUUUV8ifYhRRRQAUUUUAFFFFABRRRQAVPYf8hC0/67J/6GKgqew/5CFp/12T/0MVVP4l6kVfhfofQq/dH0ry24up4/GuoBJpFAnbADf7FepL90fSvKLz/kdtQ/67t/6BX6Qtj80O98Pqt5Yu92ondXK7pfmOMA9/rWn9htP+fWD/v2KzvCgI06TPeUkfkK2aYHI6zcTW+pSxQTSRRLtwiMVA4z2+tUvt13/wA/Vx/38NWfEIP9sT8f3f8A0EVnUAdtZ20EtnA8sETu0almZASTjrUv2G0/59YP+/Yo07/kH22evlL/ACFWKAOE+3Xf/P1cf9/DU9jeXMl7bpJcTOjSKrKzkhhnHNUKsab/AMhG2/66r/MUAdn9htP+fWD/AL9iqWsQRWumTS2sUcMq42vGoUjkDj861azvEP8AyB7j/gP/AKEKAOV+3Xf/AD9XH/fw1p+H5HvLx4rt2nQR7gsp3AEEDPPfmsStnwr/AMhGT/rkf5j/AAoA6L7Daf8APrB/37FYviP/AEIW4s/9HD7i3k/JuxjGcfU10Vc74u/5dT2+f+lAGN9uu/8An6uP+/hroPD6reWLvdqJ3EhXdKNxxgHv9a5euq8KjGnyZ/56n+QoA0fsNp/z6wf9+xXM6zcTW+pSxQTSRRLtwiMVA4z2+tddXG+IQf7Yn4/u/wDoIoArfbrv/n6uP+/hrrrO2gls4Hlgid2jUszICScda4mu707/AJB9tnr5S/yFAB9htP8An1g/79iuM+3Xf/P1cf8Afw13deeUAX7G8uZL23SS4mdGkVWVnJDDOOa6z7Daf8+sH/fsVxmm/wDIRtv+uq/zFd3QBlaxBFa6ZNLaxRwyrja8ahSOQOPzrmft13/z9XH/AH8NdV4h/wCQPcf8B/8AQhXG0Abfh+R7y8eK7dp0Ee4LKdwBBAzz35roPsNp/wA+sH/fsVzvhX/kIyf9cj/Mf4V1VAHO+I/9CFuLP/Rw+4t5PybsYxnH1NY3267/AOfq4/7+Gtnxd/y6nt8/9K56gDqPD6reWLvdqJ3EhXdKNxxgHv8AWtP7Daf8+sH/AH7FZ3hUY0+TP/PU/wAhWzQByOs3E1vqUsUE0kUS7cIjFQOM9vrVL7dd/wDP1cf9/DVnxCD/AGxPx/d/9BFZ1AHbWdtBLZwPLBE7tGpZmQEk461L9htP+fWD/v2KNO/5B9tnr5S/yFWKAOE+3Xf/AD9XH/fw0VXooA9DqvqP/IPucHB8pufwNH260/5+oP8Av4KhvbmCWzuI4p4nkaNgqq4JJx6UAcT+NaXh7/kMQYJ/i/H5TVb7Dd/8+s//AH7NXdGt5rfUopbiKSKJc5d1KgfKR1P1oA66sbxX/wAg6MesoH6GtH7daf8AP1B/38FZniB1vLJEtGWd1kDFYjuIGD6fUUAct+NdF4R/5eh2+X+tY32G7/59Z/8Av2a2vDg+xC4N5/o4fbt835c4znr9RQB0Ncr4qP8AxMY/QRD+Zrovt1p/z9Qf9/BXP+II3vLxJLRGnj8sLujG4ZyeMj6igDD/ABrs/D3/ACCIP+Bf+hGuV+w3f/PrP/37NdPo88VtpsMVzKkMq5ykjBSMknofrQBlWQ/4q0n3lHSt/Vf+Qbdf9cm/ka5vTriGTxcVjljdiZThWBrpNV/5Bt1/1yb+RqKnwsqn8SPnqP8A1af7op1Nj/1af7op1fm5+mIKKKKACiiigAooooAKKKKACiiigDr/AIV/8jW//XpJ/wChx16jrn/IE1Dv/o8n/oJry74V/wDI1v8A9ekn/ocdeoa8wXQ9RZjgC2kJP/ATX2eSf7qvVnxGef72/RHnum/duMcDz34/Krn41DpFpcSxTvHBK6NMxBVCQRgH+oq/9hu/+fWf/v2a9g8g7uq+o/8AIPucHB8pufwNH260/wCfqD/v4KhvbmCWzuI4p4nkaNgqq4JJx6UAcT+NaXh7/kMQYJ/i/H5TVb7Dd/8APrP/AN+zV3Rrea31KKW4ikiiXOXdSoHykdT9aAOurG8V/wDIOjHrKB+hrR+3Wn/P1B/38FZniB1vLJEtGWd1kDFYjuIGD6fUUAct+NMuv+PGf/dP9P8ACrn2G7/59Z/+/ZqnqgNnYy/ax5G5W2+b8ucYz1+ooA9HrxHx7/yOeq/78f8A6KSvbq8R8e/8jnqv+/H/AOikrws//wB3j6/oz3eH/wDeZf4X+aMCiiivkT7EKKKKACiiigAooooAKKKKACp7D/kIWn/XZP8A0MVBU9h/yELT/rsn/oYqqfxL1Iq/C/Q+hV+6PpXL2H/I03Pr5r/+gV1C/dH0rkbO5gTxXch54lImYEM4H8Br9IWx+aEvion+0Iuw8ofzPasX8a3fEEb3d3HLaK08YjClohuGcnjj61l/Ybv/AJ9Z/wDv2aYHVeHv+QRB/wAC/wDQjWjWXo88VtpsMVzKkMq5ykjBSMknofrVz7daf8/UH/fwUAcZqP8AyEbr/rq2Pbn0qt+NX720uJb24kjgldGkZlZUJBGTyD3qH7Dd/wDPrP8A9+zQB3dV9R/5B9zg4PlNz+Bo+3Wn/P1B/wB/BUN7cwS2dxHFPE8jRsFVXBJOPSgDifxrS8Pf8hiDBP8AF+Pymq32G7/59Z/+/Zq7o1vNb6lFLcRSRRLnLupUD5SOp+tAHXVjeK/+QdGPWUD9DWj9utP+fqD/AL+CszxA63lkiWjLO6yBisR3EDB9PqKAOW/Gui8I/wDL0O3y/wBaxvsN3/z6z/8Afs1teHB9iFwbz/Rw+3b5vy5xnPX6igDoa5XxUf8AiYx+giH8zXRfbrT/AJ+oP+/grn/EEb3l4klojTx+WF3RjcM5PGR9RQBh/jXZ+Hv+QRB/wL/0I1yv2G7/AOfWf/v2a6fR54rbTYYrmVIZVzlJGCkZJPQ/WgDUrhNR/wCQjdf9dWx7c+ldn9utP+fqD/v4K5K9tLiW9uJI4JXRpGZWVCQRk8g96AKH416JXCfYbv8A59Z/+/Zrs/t1p/z9Qf8AfwUAGo/8g+5wcHym5/A1wf41217cwS2dxHFPE8jRsFVXBJOPSuS+w3f/AD6z/wDfs0AWfD3/ACGIME/xfj8prsq5HRrea31KKW4ikiiXOXdSoHykdT9a6b7daf8AP1B/38FAGd4r/wCQdGPWUD9DXKfjXU+IHW8skS0ZZ3WQMViO4gYPp9RXP/Ybv/n1n/79mgDZ8I/8vQ7fL/WuirnvDg+xC4N5/o4fbt835c4znr9RWz9utP8An6g/7+CgDnfFR/4mMfoIh/M1i/jW54gje8vEktEaePywu6MbhnJ4yPqKzPsN3/z6z/8Afs0AdV4e/wCQRB/wL/0I1o1l6PPFbabDFcypDKucpIwUjJJ6H61c+3Wn/P1B/wB/BQBxmo/8hG6/66tj259KrfjV+9tLiW9uJI4JXRpGZWVCQRk8g96h+w3f/PrP/wB+zQB3dFV/t1p/z9Qf9/BRQBwf5f5/CrGmgf2ja8DiZefxqz/Yuof8+/8A4+v+NS22l3ltcxTzQ7YonDu24HABBJ4PtQB11Z3iHnR7jP8As/8AoQo/trT/APn4/wDHG/wqvqF7b6jZyWtnJ5k8mNq7SM4IJ5PHQUAcp+X+fwra8KY/tGX18n+oqt/Yuof8+/8A4+v+NXdKgk0m5M+oL5MTIUDZ3fNkHHGfQ0AdNXO+Lv8Al06Zy/8AStH+2tP/AOfj/wAcb/Cs7V/+JwYv7O/feVnf/DjOMdcehoA538v8/hXV+FP+QdJ/11P8hWL/AGLqH/Pv/wCPr/jWrpU8ek27wag3kys+8Ljd8uAM8Z9DQBvVxniED+2J+mfl/wDQRXRf21p//Px/443+FY2oWVxqN5JdWcfmQSY2tuAzgYPB56igDmvCP/I9/hN/OvRdV/5Bt1/1yb+Rrg/DVhc2/jffNHtXEwzuB/rXear/AMg26/65N/I1FT4WVT+JHz1H/q0/3RTqbH/q0/3RTq/Nz9MQUUUUAFFFFABRRRQAUUUUAFFFFAHX/Cv/AJGt/wDr0k/9Djr0nxZ/yKus/wDXlN/6Aa82+Ff/ACNb/wDXpJ/6HHXpfihGk8NauiDLNaTAD1Ow19nkn+6r1Z8Rnn+9v0RS8ED/AIkEHbgf+grXQVyfhHU7S20hIZ5tskZ2sNpOCFAPQe1bf9taf/z8f+ON/hXsHkHGfl/n8KsaaB/aNrwOJl5/GrP9i6h/z7/+Pr/jUttpd5bXMU80O2KJw7tuBwAQSeD7UAddWd4h50e4z/s/+hCj+2tP/wCfj/xxv8Kr6he2+o2clrZyeZPJjau0jOCCeTx0FAHKfl/n8K2vCmP7Rl9fJ/qKrf2LqH/Pv/4+v+NXdKgk0m5M+oL5MTIUDZ3fNkHHGfQ0AdNXnvxe/wCPG07/ACTfyWux/trT/wDn4/8AHG/wrjPiSw1ayh/s8+b5aS7/AOHGduOuPQ0AeiV4j49/5HPVf9+P/wBFJXt1eI+Pf+Rz1X/fj/8ARSV4Wf8A+7x9f0Z7vD/+8y/wv80YFFFFfIn2IUUUUAFFFFABRRRQAUUUUAFT2H/IQtP+uyf+hioKnsP+Qhaf9dk/9DFVT+JepFX4X6H0Kv3R9K8ouwP+E31H189u3+xXq6/dH0rzOXTbufxnfPFFuVp2IO4D+D61+kLY/NDtPCv/ACDXA7SkfoK2awdJmj0m3eDUG8mVnMgXG7K4AzxnuDV3+2tP/wCfj/xxv8KYHO+IQP7Yn6Z+X/0EVnfl/n8K2tQsrjUbyS6s4/MgkxtbcBnAweDz1FVv7F1D/n3/APH1/wAaAOq07/kH2uP+eSfyFWayrbVLO2t4oJptssShHXaTggYI4HtUn9taf/z8f+ON/hQBxn5f5/CrGmgf2ja8DiZefxqz/Yuof8+//j6/41LbaXeW1zFPNDtiicO7bgcAEEng+1AHXVneIedHuM/7P/oQo/trT/8An4/8cb/Cq+oXtvqNnJa2cnmTyY2rtIzggnk8dBQByn5f5/Ctrwpj+0ZfXyf6iq39i6h/z7/+Pr/jV3SoJNJuTPqC+TEyFA2d3zZBxxn0NAHTVzvi7/l06Zy/9K0f7a0//n4/8cb/AArO1f8A4nBi/s7995Wd/wDDjOMdcehoA538v8/hXV+FP+QdJ/11P8hWL/Yuof8APv8A+Pr/AI1q6VPHpNu8GoN5MrPvC43fLgDPGfQ0Ab1cZ4hA/tifpn5f/QRXRf21p/8Az8f+ON/hWNqFlcajeSXVnH5kEmNrbgM4GDweeooAxfy/z+Fd3p3/ACD7XH/PJP5CuV/sXUP+ff8A8fX/ABrettUs7a3igmm2yxKEddpOCBgjge1AGrXnf5f5/Cuz/trT/wDn4/8AHG/wrnf7F1D/AJ9//H1/xoAraaB/aNrwOJl5/Gu8rkbbS7y2uYp5odsUTh3bcDgAgk8H2rd/trT/APn4/wDHG/woAPEPOj3Gf9n/ANCFcZ+X+fwrq9QvbfUbOS1s5PMnkxtXaRnBBPJ46CsX+xdQ/wCff/x9f8aALPhTH9oy+vk/1FdVXM6VBJpNyZ9QXyYmQoGzu+bIOOM+hrV/trT/APn4/wDHG/woAzvF3/Lp0zl/6Vzv5f5/Cui1f/icGL+zv33lZ3/w4zjHXHoazv7F1D/n3/8AH1/xoA2vCn/IOk/66n+QrZrB0qePSbd4NQbyZWfeFxu+XAGeM+hq7/bWn/8APx/443+FAHO+IQP7Yn6Z+X/0EVnfl/n8K2tQsrjUbyS6s4/MgkxtbcBnAweDz1FVv7F1D/n3/wDH1/xoA6rTv+Qfa4/55J/IVZrKttUs7a3igmm2yxKEddpOCBgjge1Sf21p/wDz8f8Ajjf4UAcZ+X+fworR/sXUP+ff/wAfX/GigDs6r6j/AMg+6/65N/I1nf8ACRWn/POf/vkf402TWbe7ja2iSVXmBjUsowCeBnn3oA5b8R+daPh7/kMQf8C/9BNWf+Edu/8AnpB/303+FSW2nTaTMt7ctG0UWciMktzx3+ooA6asbxX/AMg6P/rqP/QWo/4SK0/55z/98j/Gobu5TXIvs1puSRSJMycAgcY4z6igDmvxH510XhH/AJez/uf+zVX/AOEdu/8AnpB/303+FWbP/iQB/th3mfG0Rc42+uceooA6GuV8V/8AIRj9PKH82rR/4SK0/wCec/8A3yP8aq3ds+uSLdWbKiIvllZcg569s+ooA578R+ddp4f/AOQRb/8AAv8A0I1i/wDCO3f/AD0g/wC+m/wq7b6jDpMK2Vwsjyx53GMDbyc8ZPvQBTsv+RsP1lrf1X/kG3X/AFyb+RrktG1OG78ZGONJA3745YDHWut1X/kG3X/XJv5GoqfCyqfxI+eo/wDVp/uinU2P/Vp/uinV+bn6YgooooAKKKKACiiigAooooAKKKKAOv8AhX/yNb/9ekn/AKHHXqOuf8gXUP8Ar3k/9BNeXfCzjxU+f+fR/wD0OOvUNcydFvwil2NvIAo6k7TxX2eSf7qvVnxGef72/RHnmm9LnP8Az3erv4j86d4c0ya+ilkieEJIfOXJOcNWx/wjt3/z0g/76b/CvYPIOqqvqP8AyD7r/rk38jWd/wAJFaf885/yH+NNk1m3vI2tollDzAxqWAwCeBnmgDlvxH51o+Hv+QxB/wAC/wDQTVn/AIR27/56Qf8AfTf4VJbadNpMy3ty8bRRZyIyS3PHf6igDpqxvFf/ACDo/wDrqP8A0FqP+EitP+ec/wCQ/wAahurlNdi+zWm5JEIkJk4BA4xxn1oA5r8R+dMuv+PG4/3TW7/wjt3/AM9IP++m/wAKwvEKNpZ+zSgSyTgIgi5wx7HP1FAHo9eI+Pf+Rz1X/fj/APRSV7dXiHjwg+MtVIOfnjH/AJCX/CvCz/8A3ePr+jPd4f8A95l/hf5owaKKK+RPsQooooAKKKKACiiigAooooAKnsP+Qhaf9dk/9DFQVNZELfWpJwBKhJPpuFVT+JEVPhZ9DL90fSuXsP8Akabj/rq//oJrqF+6PpXC/wBrwWHi28S4jlVlmOcAc7k4PXpX6Qtj80NHxV/yEIv+uQ/9CNYv4j866C6tn1x1ubRlRFXyz5vDZ69s+oqH/hHbv/npB/303+FMDa8P/wDIIt/+Bf8AoRrQrCt9Rh0mFbK4DtLF94xgY5OeMn3qT/hIrT/nnP8AkP8AGgDndS41G6z/AM9W/marfiPzrcl0W4vJXuYpIhHMxlXdkMA3ODTf+Edu/wDnpB/303+FAHVVX1H/AJB91/1yb+RrO/4SK0/55z/kP8abJrNveRtbRLKHmBjUsBgE8DPNAHLfiPzrR8Pf8hiD/gX/AKCas/8ACO3f/PSD/vpv8KkttOm0mZb25eNoos5EZJbnjv8AUUAdNWN4r/5B0f8A11H/AKC1H/CRWn/POf8AIf41DdXKa7F9mtNySIRITJwCBxjjPrQBzX4j866Lwj/y9n/c/wDZqr/8I7d/89IP++m/wqzZ/wDEgDm8O/zyNvlc4x65x6igDoa5XxX/AMhGP08ofzatH/hIrT/nnP8AkP8AGqt3bPrki3Voyoir5ZEuQc9e2fUUAc9+I/Ou08P/APIIt/8AgX/oRrF/4R27/wCekH/fTf4Vdt9Rh0mFbK4DtLF94xgY5OeMn3oA3a4TUuNRus/89W/ma6L/AISK0/55z/kP8aoS6LcXkr3MUkQjmYyruyGAbnBoAw/xH516JXK/8I7d/wDPSD/vpv8ACtH/AISK0/55z/8AfI/xoA0dR/5B91/1yb+Rrg/xH511Mms295G1tEkqvMDGpYDAJ4Geaof8I7d/89IP++m/woAreHv+QxB/wL/0E12dczbadNpMy3ty0bRRZyIyS3PHf6irv/CRWn/POf8A75H+NAB4r/5B0f8A11H/AKC1cp+I/Oulu7lNci+zWm5JFIkzJwCBxjjPqKqf8I7d/wDPSD/vpv8ACgCx4R/5ez/uf+zV0Vc9Z/8AEgD/AGw7zPjaIucbfXOPUVY/4SK0/wCec/8A3yP8aAM7xX/yEY/Tyh/NqxfxH510N3bPrki3VmyoiL5ZWXIOevbPqKg/4R27/wCekH/fTf4UAbXh/wD5BFv/AMC/9CNaFYVvqMOkwrZXCyPLHncYwNvJzxk+9Sf8JFaf885/++R/jQBzupcajdZ/56t/M1W/EfnW5LotxeSvcxSQiOZjKu4kMA3ODTf+Edu/+ekH/fTf4UAdVRWN/wAJFaf885/++R/jRQByuKsad/yErX181f5itn/hGf8Ap6/8hf8A16X+w/sX+lfaC4g/e7AmM7ecdaAOhrP8Qf8AIIuP+A/+hCs7/hJf+nT/AMif/WpP7SGsf6CYvJ83+Pduxj5unHpQBz2K2fCv/IRk/wCuR/mtWP8AhGf+nr/yF/8AXpfsw0DN1v8AP3/utmNmM85zz6UAdDXO+Lv+XT/gf/stL/wkv/Tp/wCRP/rUnHiIf8+5g/4Hnd+XpQBz2K6rwp/yD5f+up/kKrf8Iz/09f8AkL/69L9p/sDFrt+0b/3hbO3HbGOfSgDoa43xB/yGJ/8AgP8A6CK0f+El/wCnT/yJ/wDWpP7MGsf6f5vk+b/Bt3Yxx149KAOS8I/8j3+E3869F1X/AJBt1/1yb+RrjdC0r7J40Mvnb/8AXDG3Fdlqv/INuv8Ark38jUVPhZVP4kfPUf8Aq0/3RTqbH/q0/wB0U6vzc/TEFFFFABRRRQAUUUUAFFFFABRRRQBp+GdSGka7Z3r58pHKyY/uNwT+HX8K93jcOispBVhkEc5r51PIIrsvBvjNtIjjstSDSWI4SReWiHv3I/WvcyfMI4dulUdk+vmeDnOXSxCVakrtdPI7yXRntGB04ARL92NW2lPYH0qXdq3o35JV7TtUsdSiEljdQzqRn5GyR9R1FXM19bGSkrxd0fISi4u0lZnm39l+Iv8An0k/76i/xqaz07xDFeQO1tIqLIrE7ougPPevQ6KoRi79W9G/JKqavHrNxp8sUSMztjA+Qdx610tFAHm39l+Iv+fST/vqL/GtLQrTXbW8d54HRDGVBzGecj0NdvRQBiMdVK4If6goKjt9AEt9bXl8ctbkvHEDkBjjBJ7kY4rfrN1TXNM0pc395FCf7pOWP/ARzUznGC5pOyKhCU3ywV2WdQvIbGymurlwkMSlmY9hXgV9dPe3txdSjDzyNIR6ZOcfhwK3vGHiqbX3EEKNBYIchGxukPq3sPSuar47N8fHFTUKfwr8T7LJ8vlhYOdT4n+CCiiivHPaCiiigAooooAKKKKACiiigApGG5SpzyCOKWigD3Xwpq66zoltdZUy7dsqr/C44NUfFfhr+1XW6tGWO8Vdp3D5ZF9DXl/hvXrrQL4zW/7yGT/XQ9A/uPQ16zonijStYQfZ7pUm7wyna4P07/hmvtMtzKniIKE3aa/E+HzLLKmGm5QV4P8ADyZn+H7TWbGyeGSN4/3hIG5GyMDvk1p79W9G/JK2qK9c8k4LV7DX7jUJZYreR0bbg5jHYepqn/ZfiL/n0k/76i/xr0migDAs/wC147OBHVg6xqCPk6gc1Lv1b0b8kraooA82/svxF/z6Sf8AfUX+NTWeneIYryB2tpFRZFYndF0B5716HRQBi79W9G/JKqavHrNxp8sUSMztjA+Qdx610tFAHm39l+Iv+fST/vqL/GtLQrTXbW8d54HRDGVBzGecj0NdvRQBi79W9G/JKyPEFtrl35HkRO+zdnmMdcetdjRQB5t/ZfiL/n0k/wC+ov8AGt7QotatbN4543RjISB+7PGB6V1dFAGLv1b0b8krnNXsNfuNQllit5HRtuDmMdh6mu9ooA82/svxF/z6Sf8AfUX+NdVZ/wBrx2cCOrB1jUEfJ1A5rfooAxd+rejfklcNOurWeWurWYIOpaH5fzXivU6KAPNNE1OJ7+180BT5q/MOR1r0pWDKCpBB7isfU/DtjfTLOsYguVYMJIxjJH94dDWC2vXWhX7Wt5ZHaeflkyrD+8vH6UAdP4g/5BFx/wAB/wDQhXGYroF1RdbUWax+Us/Ik3bsY+bpx6Uv/CM/9PX/AJC/+vQBX8K/8hGT/rkf5rXVVz32YaBm63+fv/dbMbMZ5znn0o/4SX/p0/8AIn/1qAE8Xf8ALp/wP/2WuexXQ8eIh/z7mD/ged35elH/AAjP/T1/5C/+vQBZ8Kf8g+X/AK6n+QrZrnvtP9gYtdv2jf8AvC2duO2Mc+lH/CS/9On/AJE/+tQBneIP+QxP/wAB/wDQRWdiuh/swax/p/m+T5v8G3djHHXj0o/4Rn/p6/8AIX/16ANrTv8AkH2v/XJf5CrFc9/bn2I/ZRb7xB+63F8Zxxnp7Uf8JL/06f8AkT/61AHO4orof+EZ/wCnr/yF/wDXooA6Kq+o/wDIPuv+uTfyNc7/AMJFd/8APOD8j/jT4tauLyRbaWOIJMfKYrkHB44596AMLNaXh8f8TiD/AIF/6Ca2f+EdtP8Anpcf99D/AAqOfTodJha9tzI80X3RIRjkgc4HvQBu1jeK/wDkHxf9dR/6C1Z3/CRXf/POD8j/AI1PaXLa47Wt2oRFXzAYuCSCB3z60Ac9mui8I/8AL3/wD/2arP8Awjtp/wA9Lj/vof4VWvP+JAEFn85nyWMvP3cYxjHqaAOirlfFf/IRT/rkP5tR/wAJFd/884PyP+NW7S3TXYjc3ZZJEJjAiOBjAPfPrQBzWa7Pw9/yCLf/AIF/6Ear/wDCO2n/AD0uP++h/hVK51GXSZWsbVIzFFjaZASeeTnBHrQAyy/5Gw/70tb+q/8AINuv+uTfyNcR4e1Oa78bGOVIwP3x+UV2+q/8g26/65N/I1FT4WVT+JHz1H/q0/3RTqbH/q0/3RTq/Nz9MQUUUUAFFFFABRRRQAUUUUAFFFFABR9KKKAG7EJyVBOc9Kk3v/ff/vo/402igB29/wC+/wD30f8AGje/99/++j/jTaKLisO3v/ff/vo/40b3/vv/AN9H/Gm0UXCw7e/99/8Avo/40b3/AL7/APfR/wAabRRcLDt7YI3v/wB9H/Go1RU+4Ap9gP59adRQMKKKKACiiigAooooAKKKKACiiigAooooAKKKKACkYBvvAHjuKWigAGVAAJA9Aadvf++//fR/xptFAh29/wC+/wD30f8AGje/99/++j/jTaKLhYdvf++//fR/xo3v/ff/AL6P+NNoouFh29/77/8AfR/xo3v/AH3/AO+j/jTaKLhYdvf++/8A30f8aN7/AN9/++j/AI02ii4WHb3/AL7/APfR/wAaN7/33/76P+NNoouFh29/77/99H/Gje/99/8Avo/402ii4WHb3/vv/wB9H/Gje/8Aff8A76P+NNoouFh29/77/wDfR/xo3v8A33/76P8AjTaKLhYdvf8Avv8A99H/ABo3v/ff/vo/402ii4WFLuf43/76P+NaumeItX02TdbX87L3jmYyIfwPSsmirhUnTfNBtMidKFRcs0mvM9n8I+K7fX4zEy+TfIoLxdQR6qe4/UVpeItJj1jTmhbCzL80Mh/hbt+HqK8NsLubT76C8tW2zwtuXHQ+oPsRwa99066S+sbe6hOY5kWRfoRmvsMpx7xUHGp8S/E+MzfL1hJqVP4X+BwPgiZo9bS1nUpKrOCrdVYKQRXo9cN4lt00nW5NUgz5vyzBCfkLZCnj6D9avt4iuwSPKg/I/wCNeweQaPiv/kHxf9dR/wCgtXKZrobS5bXHa1u1CIq+YDFwSQQO+fWrX/CO2n/PS4/76H+FAFbwj/y9/wDAP/Zq6KudvP8AiQBBZ/OZ8ljLz93GMYx6mq//AAkV3/zzg/I/40AHiv8A5CKf9ch/Nqxc10tpbprsRubsskiExgRHAxgHvn1qb/hHbT/npcf99D/CgCx4e/5BFv8A8C/9CNaNczc6jLpMrWNqkZiixtMgJPPJzgj1qP8A4SK7/wCecH5H/GgDO1L/AJCNz/11b+Zqtmupj0W2vEW6kaZZJ1EjBWAAJGfSnf8ACO2n/PS4/wC+h/hQBs0Vyv8AwkV3/wA84PyP+NFAGLVnTv8AkI2v/XVf5iuq/sXT/wDnh/4+3+NMudMs7aCW4hgCyxIXQ7icEDI70AalZ3iD/kEXH/Af/QhXO/21qH/Px/44v+FWdOvrjULxLW8cSwSZ3KVA6DI5HuKAMWtnwp/yEX/65H+a1tf2Lp//ADw/8fb/ABqlqsMek2yz6evlSuwQtnccYJ759BQBvVzvi7/l0/4H/wCy1nf21qH/AD8f+OL/AIVo6R/xOPN/tH995WNn8OM5z0x6CgDna6vwp/yD5f8Arqf/AEFasf2Lp/8Azw/8fb/GsrVZ5NJuFt9PbyYim8jG7JJI6nPoKAOmrjPEH/IYuP8AgP8A6CKP7a1D/n4/8cX/AAra0+zt9RtI7q8j8yd87myVzgkDofQUAcT4R/5Hv/gM3869F1X/AJBt1/1yb+Rrl9KsLa28YF4YtjZlGc11Gq/8g26/65N/I1FT4WVT+JHz1H/q0/3RTqbH/q0/3RTq/Nz9MQUUUUAFFFFABRRRQAUUUUAFFFFABRRRQAUUUUAFFFFABRRRQAUUUUAFFFFABRRRQAUUUUAFFFFABRRRQAUUUUAFFFFABRRRQAUUUUAFFFFABRRRQAUUUUAFFFFABRRRQAUUUUAFFFFABRRRQAUUUUAFFFFABRRRQAV7X8PWLeD9Oyc4QgfQMRXile1fDz/kT9P+jf8AoRr3Mg/3iXp+p4HEP8CPr+hn/EU4hi942z+DL/jWe/32+tXvHeZNa0m2fmCWKbevrjaRXSHRbAn/AFH/AI+3+NfXnyBi+FP+Qi//AFyP81rq6wdVhj0m2WfT18qV2CFs7jjBPfPoKyv7a1D/AJ+P/HF/woA0fF3/AC6f8D/9lrna6LSP+Jx5v9o/vvKxs/hxnOemPQVo/wBi6f8A88P/AB9v8aAK/hT/AJB8v/XU/wDoK1s1zOqzyaTcLb6e3kxFN5GN2SSR1OfQVS/trUP+fj/xxf8ACgA8Qf8AIYuP+A/+gis6ur0+zt9RtI7q8j8yd87myVzgkDofQVY/sXT/APnh/wCPt/jQBZ03/kH2v/XJf5CrFcjc6peW1zLBDKFiicoi7BwAcDtUX9tah/z8f+OL/hQBnUV2f9i6f/zw/wDH2/xooA0ar6l/yDrr/rk38jXGfbrv/n6uP+/hqexvLmS9t0kuJnRpFVlZyQwzjmgDPrR8P/8AIYg/4F/6Ca6v7Daf8+sH/fsVS1iCK10yaW1ijhlXG141CkcgcfnQBq1jeK/+QfH/ANdR/wCgtXO/brv/AJ+rj/v4a0/D8j3l48V27ToI9wWU7gCCBnnvzQBh10XhHrd/8A/9mra+w2n/AD6wf9+xWL4j/wBCFuLP/Rw+4t5PybsYxnH1NAHRVyniv/kIx/8AXIfzas/7dd/8/Vx/38NdB4fVbyxd7tRO4kK7pRuOMA9/rQBy1dn4f/5A9v8A8C/9CNWfsNp/z6wf9+xXM6zcTW+pSxQTSRRLtwiMVA4z2+tAEtl/yNh+stb+q/8AINuv+uTfyNef+FbiaTxztkldlxMcM2a9A1X/AJBt1/1yb+RqKnwsqn8SPnqP/Vp/uinU2P8A1af7op1fm5+mIKKKKACiiigAooooAKKKKACiiigAooooAKKKKACiiigAooooAKKKKACiiigAooooAKKKKACiiigAooooAKKKKACiiigAooooAKKKKACiiigAooooAKKKKACiiigAooooAKKKKACiiigAooooAKKKKACiiigAooooAK9q+Hn/ACJ+nfRv/QjXite1fDz/AJE/Tvo3/oRr3Mg/3iXp+p4HEP8Au8fX9DN8b/8AIyaH/wBcrj+SV2tcV8RflNtIoxIkb7XHUZZM1E19dhmAup/+/hr68+QOh8V/8g+P/rqP/QWrlK3PD8j3l48V27ToI9wWU7gCCBnnvzXQfYbT/n1g/wC/YoAxfCPW7/4B/wCzV0Vc74j/ANCFuLP/AEcPuLeT8m7GMZx9TWN9uu/+fq4/7+GgDQ8V/wDIRj/65D+bVjV1Ph9VvLF3u1E7iQrulG44wD3+taf2G0/59YP+/YoAreH/APkD2/8AwL/0I1o1yOs3E1vqUsUE0kUS7cIjFQOM9vrVL7dd/wDP1cf9/DQAal/yEbr/AK6t/M1Wrt7O2gls4Hlgid2jUszICScdal+w2n/PrB/37FAFiiuE+3Xf/P1cf9/DRQBXqxpv/IRtv+uq/wAxXd1X1H/kH3ODg+U3P4GgCxWd4h/5A9x/wH/0IVxn41peHv8AkMQYJ/i/H5TQBnVs+Ff+QjJ/1yP8x/hXVVjeK/8AkHRj1lA/Q0AbNc74u/5dT2+f+lc7+NdF4R/5eh2+X+tAHPV1XhUY0+TP/PU/yFbNcr4qP/Exj9BEP5mgDqq43xCD/bE/H93/ANBFZv412fh7/kEQf8C/9CNAHA+Egf8AhO+naavRdV/5Bt1/1yb+RrAsh/xVpPvKOlb+q/8AINuv+uTfyNRU+FlU/iR89R/6tP8AdFOpsf8Aq0/3RTq/Nz9MQUUUUAFFFFABRRRQAUUUUAFFFFABRRRQAUUUUAFFFFABRRRQAUUUUAFFFFABRRRQAUUUUAFFFFABRRRQAUUUUAFFFFABRRRQAUUUUAFFFFABRRRQAUUUUAFFFFABRRRQAUUUUAFFFFABRRRQAUUUUAFFFFABRRRQAV7V8PP+RP0/6N/6Ea8Vr2r4ef8AIn6f9G/9CNe5kH+8S9P1PA4h/wB3j6/oZ3xG5jgx18t+O/3kqg/3m+tXvG//ACMeiDsYp8jseFrta+vPkDlfCv8AyEZP+uR/mP8ACuqrG8V/8g6MesoH6GuU/GgDovF3/Lqe3z/0rnq6Hwj/AMvQ7fL/AFroqAMbwqMafJn/AJ6n+QrZrlfFR/4mMfoIh/M1i/jQBpeIQf7Yn4/u/wDoIrOrsvD3/IIg/wCBf+hGtGgCvp3/ACD7bPXyl/kKsVwmo/8AIRuv+urY9ufSq340ALRXodFAFf7daf8AP1B/38FQ3tzBLZ3EcU8TyNGwVVcEk49K4n8v8/hVjTQP7RteBxMvP40AL9hu/wDn1n/79mrujW81vqUUtxFJFEucu6lQPlI6n6111Z3iHnR7jP8As/8AoQoAs/brT/n6g/7+CszxA63lkiWjLO6yBisR3EDB9PqK5b8v8/hW14Ux/aMvr5P9RQBnfYbv/n1n/wC/Zra8OD7ELg3n+jh9u3zflzjOev1FdDXO+Lv+XTpnL/0oA2vt1p/z9Qf9/BXP+II3vLxJLRGnj8sLujG4ZyeMj6isP8v8/hXV+FP+QdJ/11P8hQBzv2G7/wCfWf8A79mun0eeK202GK5lSGVc5SRgpGST0P1rUrjPEIH9sT9M/L/6CKAJdOuIZPFxWOWN2JlOFYGuk1X/AJBt1/1yb+Rrzrwj/wAj3+E3869F1X/kG3X/AFyb+RqKnwsqn8SPnqP/AFaf7op1Nj/1af7op1fm5+mIKKKKACiiigAooooAKKKKACiiigAooooAKKKKACiiigAooooAKKKKACiiigAooooAKKKKACiiigAooooAKKKKACiiigAooooAKKKKACiiigAooooAKKKKACiiigAooooAKKKKACiiigAooooAKKKKACiiigAooooAK9q+Hn/In6f9G/8AQjXite1fDz/kT9P+jf8AoRr3Mg/3iXp+p4HEP+7x9f0M3xz8uv6NI3EaxT7mPQZ2Yya637baf8/UH/fwVyXxGz5UPp5bfj8yVSb77V9efIHT+IHW8skS0ZZ3WQMViO4gYPp9RXP/AGG7/wCfWf8A79mtHwpj+0ZfXyf6iuqoA57w4PsQuDef6OH27fN+XOM56/UVs/brT/n6g/7+CsXxd/y6dM5f+lc7+X+fwoA3PEEb3l4klojTx+WF3RjcM5PGR9RWZ9hu/wDn1n/79mui8Kf8g6T/AK6n+QrZoAy9HnittNhiuZUhlXOUkYKRkk9D9aufbrT/AJ+oP+/grlPEIH9sT9M/L/6CKzvy/wA/hQBfvbS4lvbiSOCV0aRmVlQkEZPIPeofsN3/AM+s/wD37Ndlp3/IPtcf88k/kKs0AV/t1p/z9Qf9/BRXB/l/n8KKANH+xdQ/59//AB9f8alttLvLa5inmh2xROHdtwOACCTwfauuqvqP/IPuv+uTfyNAFb+2tP8A+fj/AMcb/Cq+oXtvqNnJa2cnmTyY2rtIzggnk8dBXKfiPzrR8Pf8hiD/AIF/6CaAD+xdQ/59/wDx9f8AGrulQSaTcmfUF8mJkKBs7vmyDjjPoa6asbxX/wAg6P8A66j/ANBagCx/bWn/APPx/wCON/hWdq//ABODF/Z377ys7/4cZxjrj0Nc7+I/Oui8I/8AL2f9z/2agDO/sXUP+ff/AMfX/GtXSp49Jt3g1BvJlZ94XG75cAZ4z6Gt6uV8V/8AIRj9PKH82oA2f7a0/wD5+P8Axxv8KxtQsrjUbyS6s4/MgkxtbcBnAweDz1FYv4j867Tw/wD8gi3/AOBf+hGgDifDVhc2/jffNHtXEwzuB/rXear/AMg26/65N/I1gWX/ACNh+stb+q/8g26/65N/I1FT4WVT+JHz1H/q0/3RTqbH/q0/3RTq/Nz9MQUUUUAFFFFABRRRQAUUUUAFFFFABRRRQAUUUUAFFFFABRRRQAUUUUAFFFFABRRRQAUUUUAFFFFABRRRQAUUUUAFFFFABRRRQAUUUUAFFFFABRRmjNABRRmjNABRRmigAooooAKKKKACiiigAooooAKKKKACiiigAooooAK9q+Hn/In6f9G/9CNeK17V8PP+RP0/6N/6Ea9zIP8AeJen6ngcQ/7vH1/QzfiH+8ms7ZOZpY5Ni+uChPNPbRb8sSLfv/fX/GmeN/8AkZND/wCuU/8A7JXa19efIHM6VBJpNyZ9QXyYmQoGzu+bIOOM+hrV/trT/wDn4/8AHG/wqv4r/wCQdH/11H/oLVyn4j86AOi1f/icGL+zv33lZ3/w4zjHXHoazv7F1D/n3/8AH1/xrR8I/wDL2f8Ac/8AZq6KgDB0qePSbd4NQbyZWfeFxu+XAGeM+hq7/bWn/wDPx/443+FY3iv/AJCMfp5Q/m1Yv4j86ANrULK41G8kurOPzIJMbW3AZwMHg89RVb+xdQ/59/8Ax9f8a6Pw/wD8gi3/AOBf+hGtCgDKttUs7a3igmm2yxKEddpOCBgjge1Sf21p/wDz8f8Ajjf4VyupcajdZ/56t/M1W/EfnQBo/wBi6h/z7/8Aj6/40V2dFAGN/wAJFaf885/++R/jTZNZt7uNraJJVeYGNSyjAJ4GefeuXxVjTv8AkJWvr5q/zFAGj/wjt3/z0g/76b/CpLbTptJmW9uWjaKLORGSW547/UV01Z/iD/kEXH/Af/QhQBW/4SK0/wCec/8A3yP8ahu7lNci+zWm5JFIkzJwCBxjjPqK5vFbPhX/AJCMn/XI/wA1oAP+Edu/+ekH/fTf4VZs/wDiQB/th3mfG0Rc42+uceoroa53xd/y6f8AA/8A2WgCz/wkVp/zzn/75H+NVbu2fXJFurNlREXyysuQc9e2fUVz+K6rwp/yD5f+up/kKAM7/hHbv/npB/303+FXbfUYdJhWyuFkeWPO4xgbeTnjJ963a43xB/yGJ/8AgP8A6CKAItG1OG78ZGONJA3745YDHWut1X/kG3X/AFyb+Rrzrwj/AMj3+E3869F1X/kG3X/XJv5GoqfCyqfxI+eo/wDVp/uinU2P/Vp/uinV+bn6YgooooAKKKKACiiigAooooAKKKKACiiigAooooAKKKKACiiigAooooAKKKKACiiigAooooAKKKKACiiigAooooAKKKKACiiigAo/l1/D1+lCgsyqoLMxwABkk+leleE/AkcaJd62oklPK22cqv8Avf3j+ldWEwdXFz5aa+fY5MZjaWEhzVH6LqzgdO0y+1MgWFnNcZ/iVfl/766frWungjxCygmwCk9QZkyPyavZ0jWNAqIqqOgAwBT+9fQ0+H6KXvybflZf5nzlTiGs3+7gkvO7/wAjxf8A4QfxD/z5J/3/AE/xo/4QfxD/AM+Sf9/0/wAa9oorT+wMN/NL71/kR/rBif5Y/c/8zxf/AIQfxD/z5J/3/T/Gj/hB/EP/AD5J/wB/0/xr2iij+wMN/NL71/kH+sGJ/lj9z/zPF/8AhB/EP/Pkn/f9P8aq3nhTXbRC8umSug6GErJ+ikmvcqTFKXD+HtpJ/h/kNcQ4hPWMfx/zPnNgVdkYFXXqrDDD8OtH14r3XXvD2na1EVvIAJB92VPldfxryLxLoF34fvBFcfPBIcRTgYDAdj6GvEx2V1cJ728e/wDme5gM1pYt8m0u3+Rj0UUV5h6gUUUUAFFFFABRRRQAUUUUAFFFFABXtXw8/wCRP0/6N/6Ea8Vr2r4ef8ifp/0b/wBCNe5kH+8S9P1PA4h/3ePr+hm+PR5Wq6XeNzHDFMGUdTu2AYrcPiG0Bx5c/wD3yP8AGsP4j/6qH/rm3/oSVScfO31r68+QOju7lNci+zWm5JFIkzJwCBxjjPqKqf8ACO3f/PSD/vpv8KPCv/IRk/65H+a11VAHPWf/ABIA/wBsO8z42iLnG31zj1FWP+EitP8AnnP/AN8j/Gq3i7/l0/4H/wCy1z2KAOgu7Z9ckW6s2VERfLKy5Bz17Z9RUH/CO3f/AD0g/wC+m/wrR8Kf8g+X/rqf5CtmgDCt9Rh0mFbK4WR5Y87jGBt5OeMn3qT/AISK0/55z/8AfI/xrG8Qf8hif/gP/oIrOxQBty6LcXkr3MUkIjmYyruJDANzg03/AIR27/56Qf8AfTf4V0Wnf8g+1/65L/IVYoAxv+EitP8AnnP/AN8j/GiuVxRQB0P/AAjP/T1/5C/+vS/2H9i/0r7QXEH73YExnbzjrXQ1X1H/AJB91/1yb+RoAxv+El/6dP8AyJ/9ak/tIax/oJi8nzf4927GPm6celc7mtLw+P8AicQf8C/9BNAGh/wjP/T1/wCQv/r0v2YaBm63+fv/AHWzGzGec559K6GsbxX/AMg+L/rqP/QWoAr/APCS/wDTp/5E/wDrUnHiIf8APuYP+B53fl6Vzua6Lwj/AMvf/AP/AGagA/4Rn/p6/wDIX/16X7T/AGBi12/aN/7wtnbjtjHPpXQ1yviv/kIp/wBch/NqALP/AAkv/Tp/5E/+tSf2YNY/0/zfJ83+Dbuxjjrx6Vzua7Pw9/yCLf8A4F/6EaAOU0LSvsnjQy+dv/1wxtxXZar/AMg26/65N/I1gWX/ACNh/wB6Wt/Vf+Qbdf8AXJv5GoqfCyqfxI+eo/8AVp/uinU2P/Vp/uinV+bn6YgooooAKKKKACiiigAooooAKKKKACiiigAooooAKKKKACiiigAooooAKKKKACiiigAooooAKKKKACiiigAooooAKKKKACiikckISoy2OB70IR6F8MNBWUtrF0m4AlLdT6jgv/QV6XVLRrFdN0u1s4+VhjVM+uB1q9X3+Bw0cNRUFv19T89x2Jlia0qj26egUUUV2HIFFFFABRRRQAUUUUAJiqGuaXb6xpstndLlHHB7qexHvWhRUzgpxcZK6ZUJOElKLs0fPF9ay2N7cWlyAJoXKPt6HHcfhUNdr8VrJYNbtrpePtURDfVCOfyYCuKr8/xlD6vWlT7H6Fgq/wBYoRq9wooormOoKKKKACiiigAooooAKKKKACvavh5/yJ+n/Rv/AEI14rXtXw8/5E/T/o3/AKEa9zIP94l6fqeBxD/u8fX9DN8fnzr/AE6z6efHL8/ptKmtQ+G8nP2r/wAhf/XrL8b/APIx6H/1yuP5JXa19efIHPfZhoGbrf5+/wDdbMbMZ5znn0o/4SX/AKdP/In/ANarHiv/AJB8X/XUf+gtXKZoA6LjxEP+fcwf8Dzu/L0o/wCEZ/6ev/IX/wBejwj/AMvf/AP/AGauioA577T/AGBi12/aN/7wtnbjtjHPpR/wkv8A06f+RP8A61VvFf8AyEU/65D+bVi5oA6L+zBrH+n+b5Pm/wAG3djHHXj0o/4Rn/p6/wDIX/160fD3/IIt/wDgX/oRrRoA57+3PsR+yi33iD91uL4zjjPT2o/4SX/p0/8AIn/1qxdS/wCQjc/9dW/marZoA6L/AIRn/p6/8hf/AF6K6KigDlf+Eiu/+ecH5H/Gnxa1cXki20scQSY+UxXIODxxz71hVZ07/kI2v/XVf5igDov+EdtP+elx/wB9D/Co59Oh0mFr23MjzRfdEhGOSBzge9btZ3iD/kEXH/Af/QhQBjf8JFd/884PyP8AjU9pctrjta3ahEVfMBi4JIIHfPrXPVs+FP8AkIv/ANcj/NaANL/hHbT/AJ6XH/fQ/wAKrXn/ABIAgs/nM+Sxl5+7jGMY9TXRVzvi7/l0/wCB/wDstAFf/hIrv/nnB+R/xq3aW6a7Ebm7LJIhMYERwMYB759a5qur8Kf8g+X/AK6n/wBBWgA/4R20/wCelx/30P8ACqVzqMukytY2qRmKLG0yAk88nOCPWumrjPEH/IYuP+A/+gigCj4e1Oa78bGOVIwP3x+UV2+q/wDINuv+uTfyNedeEf8Ake/+Azfzr0XVf+Qbdf8AXJv5GoqfCyqfxI+eo/8AVp/uinU2P/Vp/uinV+bn6YgooooAKKKKACiiigAooooAKKKKACiiigAooooAKKKKACiiigAooooAKKKKACiiigAooooAKKKKACiiigAooooAKKKKACprEZv7Uf8ATaPPv8wqGp7D/kIWn/XZP/QxVU/iRFT4WfQq/dH0paRfuj6UtfpC2PzQKKKKYBRRRQAUUUUAFFFFABRRRQB558X0H2fTJP4hI6/gRn+lea16Z8Xv+PLTf+uzf+gmvM6+Izn/AHuXy/I+4yX/AHSPz/MKKKK8s9YKKKKACiiigAooooAKKKKACvavh5/yJ+n/AEb/ANCNeK17V8PP+RP0/wCjf+hGvcyD/eJen6ngcQ/7vH1/QzfiD+6u7G7XmSCOTaD05KCrjeIrsNjyoPyP+NU/iP8A6uH/AK5t/wChJVF/vt9a+vPkDoLS5bXHa1u1CIq+YDFwSQQO+fWrX/CO2n/PS4/76H+FZvhT/kIv/wBcj/Na6ugDnbz/AIkAQWfzmfJYy8/dxjGMepqv/wAJFd/884PyP+NWPF3/AC6f8D/9lrnaAOltLdNdiNzdlkkQmMCI4GMA98+tTf8ACO2n/PS4/wC+h/hR4U/5B8v/AF1P/oK1s0Aczc6jLpMrWNqkZiixtMgJPPJzgj1qP/hIrv8A55wfkf8AGq3iD/kMXH/Af/QRWdQB1Mei214i3UjTLJOokYKwABIz6U7/AIR20/56XH/fQ/wrR03/AJB9r/1yX+QqxQByv/CRXf8Azzg/I/40Vi0UAdn/AGLp/wDzw/8AH2/xplzplnbQS3EMAWWJC6HcTggZHetSq+pf8g66/wCuTfyNAHKf21qH/Px/44v+FWdOvrjULxLW8cSwSZ3KVA6DI5HuKxa0fD//ACGIP+Bf+gmgDov7F0//AJ4f+Pt/jVLVYY9Jtln09fKldghbO44wT3z6Ct6sbxX/AMg+P/rqP/QWoAxf7a1D/n4/8cX/AArR0j/iceb/AGj++8rGz+HGc56Y9BXO10XhHrd/8A/9moA0f7F0/wD54f8Aj7f41larPJpNwtvp7eTEU3kY3ZJJHU59BXTVyniv/kIx/wDXIfzagCv/AG1qH/Px/wCOL/hW1p9nb6jaR3V5H5k753NkrnBIHQ+grlK7Pw//AMge3/4F/wChGgDntKsLa28YF4YtjZlGc11Gq/8AINuv+uTfyNYFl/yNh+stb+q/8g26/wCuTfyNRU+FlU/iR89R/wCrT/dFOpsf+rT/AHRTq/Nz9MQUUUUAFFFFABRRRQAUUUUAFFFFABRRRQAUUUUAFFFFABRRRQAUUUUAFFFFABRRRQAUUUUAFFFFABRRRQAUUUUAFFFFABU9h/yELT/rsn/oYqCp7D/kIWn/AF2T/wBDFVT+JepFX4X6H0Kv3R9KWkX7o+lLX6Qtj80CiiimAUUUUAFFFFABRRRQAUUUUAeffF7/AI8tN/67N/6Ca8zr0z4vf8eWm/8AXZv/AEE15nXxGc/73L5fkfcZJ/ukfn+YUUUV5Z6wUUUUAFFFFABRRRQAUUUUAFe1fDz/AJE/T/o3/oRrxWvavh5/yJ+nfRv/AEI17mQf7xL0/U8DiH/d4+v6Gb47/ea1pFu/MMsU29fXG0iukOi2BP8AqP8Ax9v8a5vxv/yMmh/9crj+SV2tfXnyBg6rDHpNss+nr5UrsELZ3HGCe+fQVlf21qH/AD8f+OL/AIVteK/+QfH/ANdR/wCgtXKUAdFpH/E483+0f33lY2fw4znPTHoK0f7F0/8A54f+Pt/jWd4R63f/AAD/ANmroqAOZ1WeTSbhbfT28mIpvIxuySSOpz6CqX9tah/z8f8Aji/4VY8V/wDIRj/65D+bVjUAdXp9nb6jaR3V5H5k753NkrnBIHQ+gqx/Yun/APPD/wAfb/Gjw/8A8ge3/wCBf+hGtGgDkbnVLy2uZYIZQsUTlEXYOADgdqi/trUP+fj/AMcX/Cq+pf8AIRuv+urfzNVqAOz/ALF0/wD54f8Aj7f40Vo0UAcJ9uu/+fq4/wC/hqexvLmS9t0kuJnRpFVlZyQwzjmqFWNN/wCQjbf9dV/mKAOz+w2n/PrB/wB+xVLWIIrXTJpbWKOGVcbXjUKRyBx+datZ3iH/AJA9x/wH/wBCFAHK/brv/n6uP+/hrT8PyPeXjxXbtOgj3BZTuAIIGee/NYlbPhX/AJCMn/XI/wAx/hQB0X2G0/59YP8Av2KxfEf+hC3Fn/o4fcW8n5N2MYzj6muirnfF3/Lqe3z/ANKAMb7dd/8AP1cf9/DXQeH1W8sXe7UTuJCu6UbjjAPf61y9dV4VGNPkz/z1P8hQBo/YbT/n1g/79iuZ1m4mt9SligmkiiXbhEYqBxnt9a66uN8Qg/2xPx/d/wDQRQBj+FbiaTxztkldlxMcM2a9A1X/AJBt1/1yb+RrzrwkD/wnfTtNXouq/wDINuv+uTfyNRU+FlU/iR89R/6tP90U6mx/6tP90U6vzc/TEFFFFABRRRQAUUUUAFFFFABRRRQAUUUUAFFFFABRRRQAUUUUAFFFFABRRRQAUUUUAFFFFABRRRQAUUUUAFFFFABRRRQAVPYf8hC0/wCuyf8AoYqCp7H/AI/7U9vOT/0IVVP4kRV+Fn0Kv3R9KWkX7o+lLX6Qtj80CiiimAUUUUAFFFFABRRRQAUUUUAeffF7/jy03/rq3/oJrzOvSvi+w+zaYncyMfwC/wD1681r4jOf97l8vyPuMk/3SPz/ADCiiivLPWCiiigAooooAKKKKACiiigAr2r4ef8AIn6d9G/9CNeK17V8PP8AkT9P+jf+hGvcyD/eJen6ngcQ/wC7x9f0M34i/KbaRRiRI32uOoyyZqJr67DMBdT/APfw1N8RuY4MdfLfjv8AeSqD/eb619efIG34fke8vHiu3adBHuCyncAQQM89+a6D7Daf8+sH/fsVzvhX/kIyf9cj/Mf4V1VAHO+I/wDQhbiz/wBHD7i3k/JuxjGcfU1jfbrv/n6uP+/hrZ8Xf8up7fP/AErnqAOo8Pqt5Yu92oncSFd0o3HGAe/1rT+w2n/PrB/37FZ3hUY0+TP/AD1P8hWzQByOs3E1vqUsUE0kUS7cIjFQOM9vrVL7dd/8/Vx/38NWfEIP9sT8f3f/AEEVnUAdtZ20EtnA8sETu0almZASTjrUv2G0/wCfWD/v2KNO/wCQfbZ6+Uv8hVigDhPt13/z9XH/AH8NFV6KAPQ6r6j/AMg+5wcHym5/A0fbrT/n6g/7+Cob25gls7iOKeJ5GjYKquCScelAHE/jWl4e/wCQxBgn+L8flNVvsN3/AM+s/wD37NXdGt5rfUopbiKSKJc5d1KgfKR1P1oA66sbxX/yDox6ygfoa0ft1p/z9Qf9/BWZ4gdbyyRLRlndZAxWI7iBg+n1FAHLfjXReEf+Xodvl/rWN9hu/wDn1n/79mtrw4PsQuDef6OH27fN+XOM56/UUAdDXK+Kj/xMY/QRD+Zrovt1p/z9Qf8AfwVz/iCN7y8SS0Rp4/LC7oxuGcnjI+ooAw/xrs/D3/IIg/4F/wChGuV+w3f/AD6z/wDfs10+jzxW2mwxXMqQyrnKSMFIySeh+tAGVZD/AIq0n3lHSt/Vf+Qbdf8AXJv5Gub064hk8XFY5Y3YmU4Vga6TVf8AkG3X/XJv5GoqfCyqfxI+eo/9Wn+6KdTY/wDVp/uinV+bn6YgooooAKKKKACiiigAooooAKKKKACiiigAooooAKKKKACiiigAooooAKKKKACiiigAooooAKKKKACiiigAooooAKKKKACkbO0hThscH0NLRQB9AaPepqOl2t5GPkmjVwPTI6VdrzX4W68iBtHuX2kkyW5PQ5OWUfjk/jXpNfoGCxKxNGM18/U/O8bhpYatKm/l6C0UUV1nKFFFFABRRRQAUUUUAFGaTNUdZ1O30nTpry6bEcY6Dqx7Ae9TKagnKWyHGLm1GK1Z5v8AFi8E2t2lqvP2aIsfq5H9FH51xNT6heTX99cXlx/rp3Ln2HQL+A4FQV+f4yv9YrSqdz9DwWH+r0I0uwUUUVzHUFFFFABRRRQAUUUUAFFFFABXtXw8/wCRP0/6N/6Ea8Vr2r4ef8ifp/0b/wBCNe5kH+8S9P1PA4h/3ePr+hm+N/8AkY9EHYxT5HY8LXa1xXjn5df0aRuI1in3Megzsxk11v220/5+oP8Av4K+vPkDO8V/8g6MesoH6GuU/Gup8QOt5ZIloyzusgYrEdxAwfT6iuf+w3f/AD6z/wDfs0AbPhH/AJeh2+X+tdFXPeHB9iFwbz/Rw+3b5vy5xnPX6itn7daf8/UH/fwUAc74qP8AxMY/QRD+ZrF/GtzxBG95eJJaI08flhd0Y3DOTxkfUVmfYbv/AJ9Z/wDv2aAOq8Pf8giD/gX/AKEa0ay9HnittNhiuZUhlXOUkYKRkk9D9aufbrT/AJ+oP+/goA4zUf8AkI3X/XVse3PpVb8av3tpcS3txJHBK6NIzKyoSCMnkHvUP2G7/wCfWf8A79mgDu6Kr/brT/n6g/7+CigDg/y/z+FWNNA/tG14HEy8/jVn+xdQ/wCff/x9f8alttLvLa5inmh2xROHdtwOACCTwfagDrqzvEPOj3Gf9n/0IUf21p//AD8f+ON/hVfUL231GzktbOTzJ5MbV2kZwQTyeOgoA5T8v8/hW14Ux/aMvr5P9RVb+xdQ/wCff/x9f8au6VBJpNyZ9QXyYmQoGzu+bIOOM+hoA6aud8Xf8unTOX/pWj/bWn/8/H/jjf4Vnav/AMTgxf2d++8rO/8AhxnGOuPQ0Ac7+X+fwrq/Cn/IOk/66n+QrF/sXUP+ff8A8fX/ABrV0qePSbd4NQbyZWfeFxu+XAGeM+hoA3q4zxCB/bE/TPy/+giui/trT/8An4/8cb/CsbULK41G8kurOPzIJMbW3AZwMHg89RQBzXhH/ke/wm/nXouq/wDINuv+uTfyNcH4asLm38b75o9q4mGdwP8AWu81X/kG3X/XJv5GoqfCyqfxI+eo/wDVp/uinU2P/Vp/uinV+bn6YgooooAKKKKACiiigAooooAKKKKACiiigAooooAKKKKACiiigAooooAKKKKACiiigAooooAKKKKACiiigAooooAKKKKACiiigBUZkdXRmV1IKspwVPqD2Nen+E/HcFxHHa63IsFzjas54SQ/+yn68V5fSEZGD0PWuvCY2rhJc1P7uhx4zA0sZHlqb9H1R9GhgwBBBB7ilrwDTdX1LTABp99PAo6IDlR/wE5X9K3IfH2vR43SWsv/AF0hx/Iivoqef0Wvfi0/vPnKnD1eL9ySa+49joryH/hYeuf3NP8A+/Lf/F0f8LD1z+5p/wD35f8A+LrX+3cL5/cZf2DivL7z16ivIf8AhYeuf3NP/wC/L/8AxdH/AAsPXP7mn/8Afl//AIuj+3cL5/cH9g4ry+89eozXkB+IWuEfdsAf+uLf/FVQvPGOvXalWvzCp7Qoq4/HGamWfYZLRN/L/glRyDEt6tL5/wDAPWNd13T9FgMl9cKrkZSIHLv9FryLxR4hudfuw0o8q1jP7qEHOPc+9Y0jvJI8kju8jHJdzlifUk9/zpK8PHZrVxa5F7se3+Z7mAymlhHzv3pd+3oFFFFeWesFFFFABRRRQAUUUUAFFFFABRRRQAV7V8PP+RP0/wCjf+hGvFa9q+Hn/In6f9G/9CNe5kH+8S9P1PA4h/3ePr+hm/EbPlQ+nlt+PzJVJvvtV34h/vJrO2TmaWOTYvrgoTzT20W/LEi37/31/wAa+vPkCx4Ux/aMvr5P9RXVVzOlQSaTcmfUF8mJkKBs7vmyDjjPoa1f7a0//n4/8cb/AAoAzvF3/Lp0zl/6Vzv5f5/Cui1f/icGL+zv33lZ3/w4zjHXHoazv7F1D/n3/wDH1/xoA2vCn/IOk/66n+QrZrB0qePSbd4NQbyZWfeFxu+XAGeM+hq7/bWn/wDPx/443+FAHO+IQP7Yn6Z+X/0EVnfl/n8K2tQsrjUbyS6s4/MgkxtbcBnAweDz1FVv7F1D/n3/APH1/wAaAOq07/kH2uP+eSfyFWayrbVLO2t4oJptssShHXaTggYI4HtUn9taf/z8f+ON/hQBxn5f5/CitH+xdQ/59/8Ax9f8aKAOzqvqP/IPuv8Ark38jWd/wkVp/wA85/8Avkf402TWbe7ja2iSVXmBjUsowCeBnn3oA5b8R+daPh7/AJDEH/Av/QTVn/hHbv8A56Qf99N/hUltp02kzLe3LRtFFnIjJLc8d/qKAOmrG8V/8g6P/rqP/QWo/wCEitP+ec//AHyP8ahu7lNci+zWm5JFIkzJwCBxjjPqKAOa/EfnXReEf+Xs/wC5/wCzVX/4R27/AOekH/fTf4VZs/8AiQB/th3mfG0Rc42+uceooA6GuV8V/wDIRj9PKH82rR/4SK0/55z/APfI/wAaq3ds+uSLdWbKiIvllZcg569s+ooA578R+ddp4f8A+QRb/wDAv/QjWL/wjt3/AM9IP++m/wAKu2+ow6TCtlcLI8sedxjA28nPGT70AU7L/kbD9Za39V/5Bt1/1yb+RrktG1OG78ZGONJA3745YDHWut1X/kG3X/XJv5GoqfCyqfxI+eo/9Wn+6KdTY/8AVp/uinV+bn6YgooooAKKKKACiiigAooooAKKKKACiiigAooooAKKKKACiiigAooooAKKKKACiiigAooooAKKKKACiiigAooooAKKKKACiiigAooooAKKKKACiiigAooooAKKKKACiiigAooooAKKKKACiiigAooooAKKKKACiiigAr2r4ef8ifp/0b/0I14rXtXw8/5E/T/o3/oRr3Mg/wB4l6fqeBxD/u8fX9DN8b/8jJof/XKf/wBkrta4rx6PK1XS7xuY4Ypgyjqd2wDFbh8Q2gOPLn/75H+NfXnyAeK/+QdH/wBdR/6C1cp+I/Oulu7lNci+zWm5JFIkzJwCBxjjPqKqf8I7d/8APSD/AL6b/CgCx4R/5ez/ALn/ALNXRVz1n/xIA/2w7zPjaIucbfXOPUVY/wCEitP+ec//AHyP8aAM7xX/AMhGP08ofzasX8R+ddDd2z65It1ZsqIi+WVlyDnr2z6ioP8AhHbv/npB/wB9N/hQBteH/wDkEW//AAL/ANCNaFYVvqMOkwrZXCyPLHncYwNvJzxk+9Sf8JFaf885/wDvkf40Ac7qXGo3Wf8Anq38zVb8R+dbkui3F5K9zFJCI5mMq7iQwDc4NN/4R27/AOekH/fTf4UAdVRWN/wkVp/zzn/75H+NFAHK4qxp3/IStfXzV/mK2f8AhGf+nr/yF/8AXpf7D+xf6V9oLiD97sCYzt5x1oA6Gs/xB/yCLj/gP/oQrO/4SX/p0/8AIn/1qT+0hrH+gmLyfN/j3bsY+bpx6UAc9itnwr/yEZP+uR/mtWP+EZ/6ev8AyF/9el+zDQM3W/z9/wC62Y2YzznPPpQB0Nc74u/5dP8Agf8A7LS/8JL/ANOn/kT/AOtSceIh/wA+5g/4Hnd+XpQBz2K6rwp/yD5f+up/kKrf8Iz/ANPX/kL/AOvS/af7Axa7ftG/94Wztx2xjn0oA6GuN8Qf8hif/gP/AKCK0f8AhJf+nT/yJ/8AWpP7MGsf6f5vk+b/AAbd2McdePSgDkvCP/I9/hN/OvRdV/5Bt1/1yb+RrjdC0r7J40Mvnb/9cMbcV2Wq/wDINuv+uTfyNRU+FlU/iR89R/6tP90U6mx/6tP90U6vzc/TEFFFFABRRRQAUUUUAFFFFABRRRQAUUUUAFFFFABRRRQAUUUUAFFFFABRRRQAUUUUAFFFFABRRRQAUUUUAFFFFABRRRQAUUUUAFFFFABRRRQAUUUUAFFFFABRRRQAUUUUAFFFFABRRRQAUUUUAFFFFABRRRQAUUUUAFe1fDz/AJE/T/o3/oRrxWvavh5/yJ+n/Rv/AEI17mQf7xL0/U8DiH/d4+v6Gb8R/wDVQ/8AXNv/AEJKpOPnb61d8fnzr/TrPp58cvz+m0qa1D4byc/av/IX/wBevrz5AreFf+QjJ/1yP81rqq577MNAzdb/AD9/7rZjZjPOc8+lH/CS/wDTp/5E/wDrUAJ4u/5dP+B/+y1z2K6HjxEP+fcwf8Dzu/L0o/4Rn/p6/wDIX/16ALPhT/kHy/8AXU/yFbNc99p/sDFrt+0b/wB4Wztx2xjn0o/4SX/p0/8AIn/1qAM7xB/yGJ/+A/8AoIrOxXQ/2YNY/wBP83yfN/g27sY468elH/CM/wDT1/5C/wDr0AbWnf8AIPtf+uS/yFWK57+3PsR+yi33iD91uL4zjjPT2o/4SX/p0/8AIn/1qAOdxRXQ/wDCM/8AT1/5C/8Ar0UAdFVfUf8AkH3X/XJv5Gud/wCEiu/+ecH5H/Gnxa1cXki20scQSY+UxXIODxxz70AYWa0vD4/4nEH/AAL/ANBNbP8Awjtp/wA9Lj/vof4VHPp0Okwte25keaL7okIxyQOcD3oA3axvFf8AyD4v+uo/9Bas7/hIrv8A55wfkf8AGp7S5bXHa1u1CIq+YDFwSQQO+fWgDns10XhH/l7/AOAf+zVZ/wCEdtP+elx/30P8KrXn/EgCCz+cz5LGXn7uMYxj1NAHRVyviv8A5CKf9ch/NqP+Eiu/+ecH5H/GrdpbprsRubsskiExgRHAxgHvn1oA5rNdn4e/5BFv/wAC/wDQjVf/AIR20/56XH/fQ/wqlc6jLpMrWNqkZiixtMgJPPJzgj1oAZZf8jYf96Wt/Vf+Qbdf9cm/ka4jw9qc1342McqRgfvj8ort9V/5Bt1/1yb+RqKnwsqn8SPnqP8A1af7op1Nj/1af7op1fm5+mIKKKKACiiigAooooAKKKKACiiigAooooAKKKKACiiigAooooAKKKKACiiigAooooAKKKKACiiigAooooAKKKKACiiigAooooAKKKKACiiigAooooAKKKKACiiigAooooAKKKKACiiigAooooAKKKKACiiigAooooAK9q+Hn/In6f8ARv8A0I14rXtXw8/5E/T/AKN/6Ea9zIP94l6fqeBxD/u8fX9DN8b/APIx6H/1yuP5JXa1xXxB/dXdjdrzJBHJtB6clBVxvEV2Gx5UH5H/ABr68+QNDxX/AMg+L/rqP/QWrlM10Npctrjta3ahEVfMBi4JIIHfPrVr/hHbT/npcf8AfQ/woAreEf8Al7/4B/7NXRVzt5/xIAgs/nM+Sxl5+7jGMY9TVf8A4SK7/wCecH5H/GgA8V/8hFP+uQ/m1Yua6W0t012I3N2WSRCYwIjgYwD3z61N/wAI7af89Lj/AL6H+FAFjw9/yCLf/gX/AKEa0a5m51GXSZWsbVIzFFjaZASeeTnBHrUf/CRXf/POD8j/AI0AZ2pf8hG5/wCurfzNVs11Mei214i3UjTLJOokYKwABIz6U7/hHbT/AJ6XH/fQ/wAKANmiuV/4SK7/AOecH5H/ABooAxas6d/yEbX/AK6r/MV1X9i6f/zw/wDH2/xplzplnbQS3EMAWWJC6HcTggZHegDUrO8Qf8gi4/4D/wChCud/trUP+fj/AMcX/CrOnX1xqF4lreOJYJM7lKgdBkcj3FAGLWz4U/5CL/8AXI/zWtr+xdP/AOeH/j7f41S1WGPSbZZ9PXypXYIWzuOME98+goA3q53xd/y6f8D/APZazv7a1D/n4/8AHF/wrR0j/iceb/aP77ysbP4cZznpj0FAHO11fhT/AJB8v/XU/wDoK1Y/sXT/APnh/wCPt/jWVqs8mk3C2+nt5MRTeRjdkkkdTn0FAHTVxniD/kMXH/Af/QRR/bWof8/H/ji/4VtafZ2+o2kd1eR+ZO+dzZK5wSB0PoKAOJ8I/wDI9/8AAZv516Lqv/INuv8Ark38jXL6VYW1t4wLwxbGzKM5rqNV/wCQbdf9cm/kaip8LKp/Ej56j/1af7op1Nj/ANWn+6KdX5ufpiCiiigAooooAKKKKACiiigAooooAKKKKACiiigAooooAKKKKACiiigAooooAKKKKACiiigAooooAKKKKACiiigAooooAKKKKACiiigAooooAKKKKACiiigAooooAKKKKACiiigAooooAKKKKACiiigAooooAKKKKACvavh5/wAifp/0b/0I14rXtXw8/wCRP0/6N/6Ea9zIP94l6fqeBxD/ALvH1/QzfiP/AKuH/rm3/oSVRf77fWr3jv8Aea1pFu/MMsU29fXG0iukOi2BP+o/8fb/ABr68+QMXwp/yEX/AOuR/mtdXWDqsMek2yz6evlSuwQtnccYJ759BWV/bWof8/H/AI4v+FAGj4u/5dP+B/8Astc7XRaR/wATjzf7R/feVjZ/DjOc9MegrR/sXT/+eH/j7f40AV/Cn/IPl/66n/0Fa2a5nVZ5NJuFt9PbyYim8jG7JJI6nPoKpf21qH/Px/44v+FAB4g/5DFx/wAB/wDQRWdXV6fZ2+o2kd1eR+ZO+dzZK5wSB0PoKsf2Lp//ADw/8fb/ABoAs6b/AMg+1/65L/IVYrkbnVLy2uZYIZQsUTlEXYOADgdqi/trUP8An4/8cX/CgDOors/7F0//AJ4f+Pt/jRQBo1X1L/kHXX/XJv5GuM+3Xf8Az9XH/fw1PY3lzJe26SXEzo0iqys5IYZxzQBn1o+H/wDkMQf8C/8AQTXV/YbT/n1g/wC/YqlrEEVrpk0trFHDKuNrxqFI5A4/OgDVrG8V/wDIPj/66j/0Fq537dd/8/Vx/wB/DWn4fke8vHiu3adBHuCyncAQQM89+aAMOui8I9bv/gH/ALNW19htP+fWD/v2KxfEf+hC3Fn/AKOH3FvJ+TdjGM4+poA6KuU8V/8AIRj/AOuQ/m1Z/wBuu/8An6uP+/hroPD6reWLvdqJ3EhXdKNxxgHv9aAOWrs/D/8AyB7f/gX/AKEas/YbT/n1g/79iuZ1m4mt9SligmkiiXbhEYqBxnt9aAJrL/kbD9Za3tV/5Bt1/wBcm/ka8+8LXMr+OgsszsrCbAZs8/5Br0PUVMlhcIgyzRsAPfFRU+FlQ+JHzxH/AKtP90U6mxcxpj+6P8/rTq/N2fpiCiiigAooooAKKKKACiiigAooooAKKKKACiiigAooooAKKKKACiiigAooooAKKKKACiiigAooooAKKKKACiiigAooooAKKKKACiiigAooooAKKKKACiiigAooooAKKKKACiiigAooooAKKKKACiiigAooooAKKKKACvavh5/yJ+nfRv8A0I14rXtXw9BHg/TsgjKsefQsa9zIP94l6fqeBxD/ALvH1/QzfG//ACMmh/8AXK4/kldrXFfEQ4NtIvEiRttYdVyy/wCBqJr67DHF1Pj/AK6Gvrz5A6HxX/yD4/8ArqP/AEFq5Stzw/I95ePFdu06CPcFlO4AggZ57810H2G0/wCfWD/v2KAMXwj1u/8AgH/s1dFXO+I/9CFuLP8A0cPuLeT8m7GMZx9TWN9uu/8An6uP+/hoA0PFf/IRj/65D+bVjV1Ph9VvLF3u1E7iQrulG44wD3+taf2G0/59YP8Av2KAK3h//kD2/wDwL/0I1o1yOs3E1vqUsUE0kUS7cIjFQOM9vrVL7dd/8/Vx/wB/DQAal/yEbr/rq38zVau3s7aCWzgeWCJ3aNSzMgJJx1qX7Daf8+sH/fsUAWKK4T7dd/8AP1cf9/DRQBXqxpv/ACEbb/rqv8xXd1X1H/kH3ODg+U3P4GgCxWd4h/5A9x/wH/0IVxn41peHv+QxBgn+L8flNAGdWz4V/wCQjJ/1yP8AMf4V1VY3iv8A5B0Y9ZQP0NAGzXO+Lv8Al1Pb5/6Vzv410XhH/l6Hb5f60Ac9XVeFRjT5M/8APU/yFbNcr4qP/Exj9BEP5mgDqq43xCD/AGxPx/d/9BFZv412fh7/AJBEH/Av/QjQB5ityuleMLG8fAiE4LMTgBXBVj+G4n8K9eYZBHrWB4usPtVkZAMsgIPupqt4H8QDVbWayuGxqFk3lup6ug4D/jigDy/xPpTaNrd1abSIdxkhOODGeg/DOPwrLGD3Fe5eKfDtr4gsxHNmOeM7oplHKH+o9q8l1jw3q2kykXVpI8XaaEF0I/Dp+OK+KzLLamHm5wV4v8D7fLMzp4imoTdpr8fMx6KZ5sfd1/OjzY/+eif99CvIuevZj6KZ5sf/AD0T/voUebH/AM9E/wC+hRcdmPopnmx/89E/76FHmx/89E/76FFwsx9FM82P/non/fQo82P/AJ6J/wB9Ci4WY+imebH/AM9E/wC+hR5sf/PRP++hRcLMfRTPNj/56J/30KPNj/56J/30KLhZj6KZ5sf/AD0T/voUebH/AM9E/wC+hRcLMfRTPNj/AOeif99CjzY/+eif99Ci4WY+imebH/z0T/voUebH/wA9E/76FFwsx9FM82P/AJ6J/wB9CjzY/wDnon/fQouFmPopnmx/89E/76FHmx/89E/76FFwsx9FM82P/non/fQo82P/AJ6J/wB9Ci4WY+imebH/AM9E/wC+hR5sf/PRP++hRcLMfRTPNj/56J/30KPNj/56J/30KLhZj6KZ5sf/AD0T/voUebH/AM9E/wC+hRcLMfRTPNj/AOeif99CjzY/+eif99Ci4WY+imebH/z0T/voUebH/wA9E/76FFwsx9FM82P/AJ6J/wB9CjzY/wDnon/fQouFmPopnmx/89E/76FHmx/89E/76FFwsx9FM82P/non/fQo82P/AJ6J/wB9Ci4WY+imebH/AM9E/wC+hR5sf/PRP++hRcLMfRTPNj/56J/30KPNj/56J/30KLhZj6KZ5sf/AD0T/voUebH/AM9E/wC+hRcLMfRTPNj/AOeif99CjzY/+eif99Ci4WY+imebH/z0T/voUebH/wA9E/76FFwsx9FM82P/AJ6J/wB9CjzY/wDnon/fQouFmPopnmx/89E/76FHmx/89E/76FFwsx9FM82P/non/fQo82P/AJ6J/wB9Ci4WY+imebH/AM9E/wC+hR5sf/PRP++hRcLMfRTPNjz/AKxPzrR0zR9R1RlWws55VP8Ay027UA/3jgfrVwhKo+WCuyJzjTXNN2XmV7S3mvbuK1tl3TzNsT0z3Jr3zS7SOw062s4smOCNY1z1IAxzWB4N8JRaEpuLhlm1B12lwPlQei1oeKtcg0DSJLqXDSn5YYs8yP2H+NfYZRgJYWDnU+J/gfF5xmEcVNQp/DH8TmvGkv23Up4Y2BWJEhOOzFsn8gRUbcnisr4dQzTa6l7cuzyuXd2P8bMGJP6/pXrFeyeOcr4V/wCQjJ/1yP8AMf4V1VY3iv8A5B0Y9ZQP0Ncp+NAHReLv+XU9vn/pXPV0PhH/AJeh2+X+tdFQBjeFRjT5M/8APU/yFbNcr4qP/Exj9BEP5msX8aANLxCD/bE/H93/ANBFZ1dl4e/5BEH/AAL/ANCNaNAFfTv+QfbZ6+Uv8hViuE1H/kI3X/XVse3PpVb8aAFor0OigCv9utP+fqD/AL+Cob25gls7iOKeJ5GjYKquCScelcT+X+fwqxpoH9o2vA4mXn8aAF+w3f8Az6z/APfs1d0a3mt9SiluIpIolzl3UqB8pHU/WuurO8Q86PcZ/wBn/wBCFAFn7daf8/UH/fwVmeIHW8skS0ZZ3WQMViO4gYPp9RXLfl/n8K2vCmP7Rl9fJ/qKAM77Dd/8+s//AH7NbXhwfYhcG8/0cPt2+b8ucZz1+oroa53xd/y6dM5f+lAG19utP+fqD/v4K5/xBG95eJJaI08flhd0Y3DOTxkfUVh/l/n8K6vwp/yDpP8Arqf5CgDnfsN3/wA+s/8A37NdPo88VtpsMVzKkMq5ykjBSMknofrWpXGeIQP7Yn6Z+X/0EUAdRJd2bKQbm359ZBXk3iHSdR0zWn1bRkmjKSlo5FQkAEng+qmugruLOIPptsCMgxKMdunpQBznhbxta6oiwalGdP1AdUkBEb+6sePwODXXGuS1zwrBeFnhwjnnafuk/wBK80so/EmjYTS9QuYo1+6okDoPoj5H6UAe7lFPVQfwo8tP7i/lXi1r4o8Z+fFE93JJucKSbSPPP0Wug/tbxb/fk/8AAUf/ABNKyC56T5af3V/Kjy0/ur+VeXajrni63s5JFlcMuME2i/4Vif8ACWeNP+fp/wDwET/4miyHdntnlp/dX8qPLT+6v5V5BpPiXxhdXDJJcMQFzxaL/hWt/a3i3+/J/wCAo/8AiaLILs9J8tP7q/lR5af3V/KvJNY8ReMLTyvLnZd2etovb8Kzv+Es8af8/T/+Aif/ABNFkF2e2eWn91fyo8tP7q/lXlOla/4vurZnedyQ2OLRf8Ku/wBreLf78n/gKP8A4miyC7PSfLT+6v5UeWn91fyrxvUfE/jGC9kiW5cKuMA2if8AxNV/+Es8af8AP0//AICJ/wDE0WQXZ7Z5af3V/Kjy0/ur+VeZW2s+LZLeJ2lcllBz9lX/AOJqT+1vFv8Afk/8BR/8TRZBdnpPlp/dX8qPLT+6v5V4n/wlnjP/AJ+X/wDARP8A4mpLbxV4ykuIka5chmA/49E7/wDAaLILs9o8tP7q/lR5af3V/KvNv7W8W/35P/AUf/E1X1HXPF1vZySLK4ZcYJtF/wAKLILs9R8tP7q/lR5af3V/KvE/+Es8af8AP0//AICJ/wDE1d0nxL4wurhkkuGIC54tF/wosguz1/y0/ur+VHlp/dX8q82/tbxb/fk/8BR/8TWbrHiLxhaeV5c7Luz1tF7fhRZBdnrflp/dX8qPLT+6v5V4n/wlnjT/AJ+n/wDARP8A4mtbStf8X3VszvO5IbHFov8AhRZBdnq3lp/dX8qPLT+6v5V5t/a3i3+/J/4Cj/4msTUfE/jGC9kiW5cKuMA2if8AxNFkF2eyeWn91fyo8tP7q/lXif8AwlnjT/n6f/wET/4mt+21nxbJbxO0rksoOfsq/wDxNFkF2em+Wn91fyo8tP7q/lXm39reLf78n/gKP/ia5z/hLPGf/Py//gIn/wATRZBdntnlp/dX8qPLT+6v5V4vbeKvGUlxEjXLkMwH/Honf/gNb/8Aa3i3+/J/4Cj/AOJosguz0ny0/ur+VHlp/dX8q8u1HXPF1vZySLK4ZcYJtF/wrE/4Szxp/wA/T/8AgIn/AMTRZBdntnlp/dX8qPLT+6v5V5BpPiXxhdXDJJcMQFzxaL/hWt/a3i3+/J/4Cj/4miyC7PSfLT+6v5UeWn91fyryTWPEXjC08ry52XdnraL2/Cs7/hLPGn/P0/8A4CJ/8TRZBdntnlp/dX8qPLT+6v5V5TpWv+L7q2Z3nckNji0X/Crv9reLf78n/gKP/iaLILs9J8tP7q/lR5af3V/KvG9R8T+MYL2SJblwq4wDaJ/8TVf/AISzxp/z9P8A+Aif/E0WQXZ7Z5af3V/Kjy0/ur+VeZW2s+LZLeJ2lcllBz9lX/4mpP7W8W/35P8AwFH/AMTRZBdnpPlp/dX8qPLT+6v5V4n/AMJZ4z/5+X/8BE/+JqS28VeMpLiJGuXIZgP+PRO//AaLILs9o8tP7q/lR5af3V/KvNv7W8W/35P/AAFH/wATVfUdc8XW9nJIsrhlxgm0X/CiyC7PUfLT+6v5UeWn91fyrxP/AISzxp/z9P8A+Aif/E1d0nxL4wurhkkuGIC54tF/wosguz1/y0/ur+VHlp/dX8q82/tbxb/fk/8AAUf/ABNZuseIvGFp5Xlzsu7PW0Xt+FFkF2et+Wn91fyo8tP7q/lXif8AwlnjT/n6f/wET/4mtbStf8X3VszvO5IbHFov+FFkF2ereWn91fyo8tP7q/lXm39reLf78n/gKP8A4msTUfE/jGC9kiW5cKuMA2if/E0WQXZ7J5af3V/Kjy0/ur+VeJ/8JZ40/wCfp/8AwET/AOJrfttZ8WyW8TtK5LKDn7Kv/wATRZBdnpuxf7o/KlOccV5t/avi0jiST/wFH/xNcpPeeLdTQC61W92HjEbrD+ewLRYR6r4h8WaZogeKSdJ74D5bSJgZGP8AT8a80e31vxXqgv8AUbeXy14jRYzshXuB6k+tO8NeF44tQtfP2tmZMqvAPPfufzr2G2tkt41SNVRF6ACmBynh6yksr6BpYJIYI92WdSqj5SOp+tdX9utP+fqD/v4KreIf+QPceny/+hCuM/L/AD+FAHU+IHW8skS0ZZ3WQMViO4gYPp9RXP8A2G7/AOfWf/v2a0fCmP7Rl9fJ/qK6qgDnvDg+xC4N5/o4fbt835c4znr9RWz9utP+fqD/AL+CsXxd/wAunTOX/pXO/l/n8KANzxBG95eJJaI08flhd0Y3DOTxkfUVmfYbv/n1n/79mui8Kf8AIOk/66n+QrZoAy9HnittNhiuZUhlXOUkYKRkk9D9aufbrT/n6g/7+CuU8Qgf2xP0z8v/AKCKzvy/z+FAF+9tLiW9uJI4JXRpGZWVCQRk8g96h+w3f/PrP/37Ndlp3/IPtcf88k/kKs0AV/t1p/z9Qf8AfwUVwf5f5/CigDR/sXUP+ff/AMfX/GpbbS7y2uYp5odsUTh3bcDgAgk8H2rrqr6j/wAg+6/65N/I0AVv7a0//n4/8cb/AAqvqF7b6jZyWtnJ5k8mNq7SM4IJ5PHQVyn4j860fD3/ACGIP+Bf+gmgA/sXUP8An3/8fX/GrulQSaTcmfUF8mJkKBs7vmyDjjPoa6asbxX/AMg6P/rqP/QWoAsf21p//Px/443+FZ2r/wDE4MX9nfvvKzv/AIcZxjrj0Nc7+I/Oui8I/wDL2f8Ac/8AZqAM7+xdQ/59/wDx9f8AGtXSp49Jt3g1BvJlZ94XG75cAZ4z6Gt6uV8V/wDIRj9PKH82oA2f7a0//n4/8cb/AArG1CyuNRvJLqzj8yCTG1twGcDB4PPUVi/iPzrtPD//ACCLf/gX/oRoA5z+xdQ/59//AB9f8a3rbVLO2t4oJptssShHXaTggYI4HtWrXCalxqN1n/nq38zQB1R1nTj1n/8AHG/wrmzoN8ett/4+v+NUPxH516JQBxttotxbXMc88GyKNxI53g4AOSetbf8AaOl/89h/37b/AAq/qP8AyD7r/rk38jXB/iPzoA6XUJbPUbSS1s38y4fG1dpXOCD1Ix0FY/8Awj15/wA+3/j61J4e/wCQxB/wL/0E12dAHKaXY/2VcNPqKeVEy7Ac7vmznHGewNan9o6X/wA9h/37b/Cm+K/+QdH/ANdR/wCgtXKfiPzoA3dXgj1fyv7OHneVnfztxnp1x6Gs/wD4R68/59v/AB9a1fCP/L2f9z/2auioA5zSxb6VbtBqBMUzNvA5b5cYzxn0NXP7R0v/AJ7D/v23+FZniv8A5CMfp5Q/m1Yv4j86ANXUNLk1C7kurKMyQSY2tuAzgAHgnPUGq/8Awj15/wA+3/j610/h/wD5BFv/AMC/9CNaFAGJb3en20EUE8u2WJQjjaThgMEcCpP7R0v/AJ7D/v23+Fc3qXGo3Wf+erfzNVvxH50AXf8AhHrz/n2/8fWpLbRLi2uIp54SsMTB3O8HCg5PQ12dV9R/5B91/wBcm/kaAKH9o6X/AM9h/wB+2/wqvqEtnqNpJa2b+ZcPjau0rnBB6kY6Cua/EfnWj4e/5DEH/Av/AEE0AR/8I9ef8+3/AI+tXNLsf7KuGn1FPKiZdgOd3zZzjjPYGurrG8V/8g6P/rqP/QWoAd/aOl/89h/37b/Cs/V4I9X8r+zh53lZ387cZ6dcehrC/EfnXReEf+Xs/wC5/wCzUAZX/CPXn/Pt/wCPrWppYt9Kt2g1AmKZm3gct8uMZ4z6GujrlfFf/IRj9PKH82oA0/7R0v8A57D/AL9t/hWPqGlyahdyXVlGZIJMbW3AZwADwTnqDWV+I/Ou08P/APIIt/8AgX/oRoA5j/hHrz/n2/8AH1rct7vT7aCKCeXbLEoRxtJwwGCOBW3XCalxqN1n/nq38zQB0n9o6X/z2H/ftv8ACuf/AOEevP8An2/8fWqX4j869EoA4y20S4triKeeErDEwdzvBwoOT0Nbn9o6X/z2H/ftv8Kv6j/yD7r/AK5N/I1wf4j86AOl1CWz1G0ktbN/MuHxtXaVzgg9SMdBWP8A8I9ef8+3/j61J4e/5DEH/Av/AEE12dAHKaXY/wBlXDT6inlRMuwHO75s5xxnsDWp/aOl/wDPYf8Aftv8Kb4r/wCQdH/11H/oLVyn4j86AN3V4I9X8r+zh53lZ387cZ6dcehrP/4R68/59v8Ax9a1fCP/AC9n/c/9mroqAOc0sW+lW7QagTFMzbwOW+XGM8Z9DVz+0dL/AOew/wC/bf4VmeK/+QjH6eUP5tWL+I/OgDV1DS5NQu5LqyjMkEmNrbgM4AB4Jz1Bqv8A8I9ef8+3/j610/h//kEW/wDwL/0I1oUAYlvd6fbQRQTy7ZYlCONpOGAwRwKk/tHS/wDnsP8Av23+Fc3qXGo3Wf8Anq38zVb8R+dAF3/hHrz/AJ9v/H1qS20S4triKeeErDEwdzvBwoOT0NdnVfUf+Qfdf9cm/kaAKH9o6X/z2H/ftv8ACq+oS2eo2klrZv5lw+Nq7SucEHqRjoK5r8R+daPh7/kMQf8AAv8A0E0AR/8ACPXn/Pt/4+tXNLsf7KuGn1FPKiZdgOd3zZzjjPYGurrG8V/8g6P/AK6j/wBBagB39o6X/wA9h/37b/Cs/V4I9X8r+zh53lZ387cZ6dcehrC/EfnXReEf+Xs/7n/s1AGV/wAI9ef8+3/j61qaWLfSrdoNQJimZt4HLfLjGeM+hro65XxX/wAhGP08ofzagDT/ALR0v/nsP+/bf4Vj6hpcmoXcl1ZRmSCTG1twGcAA8E56g1lfiPzrtPD/APyCLf8A4F/6EaAOY/4R68/59v8Ax9a3Le70+2gignl2yxKEcbScMBgjgVt1wmpcajdZ/wCerfzNAHS/2lpf/PYf9+2/wrn/AOwb4dLfkf7a/wCNUfxH516JQByFrpV3a3EU80O2KJg7tuU4AOSeDW9/bWn/APPx/wCON/hVnUf+Qfdf9cm/ka4P8R+dAHV6he2+o2clrZyeZPJjau0jOCCeTx0FYv8AYuof8+//AI+v+NHh7/kMQf8AAv8A0E12dAHM6VBJpNyZ9QXyYmQoGzu+bIOOM+hrV/trT/8An4/8cb/Cq/iv/kHR/wDXUf8AoLVyn4j86AOi1f8A4nBi/s7995Wd/wDDjOMdcehrO/sXUP8An3/8fX/GtHwj/wAvZ/3P/Zq6KgDB0qePSbd4NQbyZWfeFxu+XAGeM+hq7/bWn/8APx/443+FY3iv/kIx+nlD+bVi/iPzoA2tQsrjUbyS6s4/MgkxtbcBnAweDz1FVv7F1D/n3/8AH1/xro/D/wDyCLf/AIF/6Ea0KAMq21SztreKCabbLEoR12k4IGCOB7VJ/bWn/wDPx/443+FcrqXGo3Wf+erfzNVvxH50AaP9i6h/z7/+Pr/jRXZ0UAY3/CRWn/POf/vkf402TWbe7ja2iSVXmBjUsowCeBnn3rl8VY07/kJWvr5q/wAxQBo/8I7d/wDPSD/vpv8ACpLbTptJmW9uWjaKLORGSW547/UV01Z/iD/kEXH/AAH/ANCFAFb/AISK0/55z/8AfI/xqG7uU1yL7NabkkUiTMnAIHGOM+orm8Vs+Ff+QjJ/1yP81oAP+Edu/wDnpB/303+FWbP/AIkAf7Yd5nxtEXONvrnHqK6Gud8Xf8un/A//AGWgCz/wkVp/zzn/AO+R/jVW7tn1yRbqzZURF8srLkHPXtn1Fc/iuq8Kf8g+X/rqf5CgDO/4R27/AOekH/fTf4Vdt9Rh0mFbK4WR5Y87jGBt5OeMn3rdrjfEH/IYn/4D/wCgigDZ/wCEitP+ec//AHyP8aoS6LcXkr3MUkIjmYyruJDANzg1iYru9O/5B9r/ANcl/kKAOd/4R27/AOekH/fTf4Vo/wDCRWn/ADzn/wC+R/jWzXnmKAOok1m3u42toklV5gY1LKMAngZ596of8I7d/wDPSD/vpv8ACs7Tv+Qla+vmr/MV3dAHM22nTaTMt7ctG0UWciMktzx3+oq7/wAJFaf885/++R/jVnxB/wAgi4/4D/6EK4zFAHSXdymuRfZrTckikSZk4BA4xxn1FVP+Edu/+ekH/fTf4UeFf+QjJ/1yP81rqqAOes/+JAH+2HeZ8bRFzjb65x6irH/CRWn/ADzn/wC+R/jVbxd/y6f8D/8AZa57FAHQXds+uSLdWbKiIvllZcg569s+oqD/AIR27/56Qf8AfTf4Vo+FP+QfL/11P8hWzQBhW+ow6TCtlcLI8sedxjA28nPGT71J/wAJFaf885/++R/jWN4g/wCQxP8A8B/9BFZ2KANuXRbi8le5ikhEczGVdxIYBucGm/8ACO3f/PSD/vpv8K6LTv8AkH2v/XJf5CrFAGN/wkVp/wA85/8Avkf402TWbe7ja2iSVXmBjUsowCeBnn3rl8VY07/kJWvr5q/zFAGj/wAI7d/89IP++m/wqS206bSZlvblo2iizkRklueO/wBRXTVn+IP+QRcf8B/9CFAFb/hIrT/nnP8A98j/ABqG7uU1yL7NabkkUiTMnAIHGOM+orm8Vs+Ff+QjJ/1yP81oAP8AhHbv/npB/wB9N/hVmz/4kAf7Yd5nxtEXONvrnHqK6Gud8Xf8un/A/wD2WgCz/wAJFaf885/++R/jVW7tn1yRbqzZURF8srLkHPXtn1Fc/iuq8Kf8g+X/AK6n+QoAzv8AhHbv/npB/wB9N/hV231GHSYVsrhZHljzuMYG3k54yfet2uN8Qf8AIYn/AOA/+gigDZ/4SK0/55z/APfI/wAaoS6LcXkr3MUkIjmYyruJDANzg1iYru9O/wCQfa/9cl/kKAOd/wCEdu/+ekH/AH03+FaP/CRWn/POf/vkf41s155igDqJNZt7uNraJJVeYGNSyjAJ4GefeqH/AAjt3/z0g/76b/Cs7Tv+Qla+vmr/ADFd3QBzNtp02kzLe3LRtFFnIjJLc8d/qKu/8JFaf885/wDvkf41Z8Qf8gi4/wCA/wDoQrjMUAdJd3Ka5F9mtNySKRJmTgEDjHGfUVU/4R27/wCekH/fTf4UeFf+QjJ/1yP81rqqAOes/wDiQB/th3mfG0Rc42+uceoqx/wkVp/zzn/75H+NVvF3/Lp/wP8A9lrnsUAdBd2z65It1ZsqIi+WVlyDnr2z6ioP+Edu/wDnpB/303+FaPhT/kHy/wDXU/yFbNAGFb6jDpMK2Vwsjyx53GMDbyc8ZPvUn/CRWn/POf8A75H+NY3iD/kMT/8AAf8A0EVnYoA25dFuLyV7mKSERzMZV3EhgG5wab/wjt3/AM9IP++m/wAK6LTv+Qfa/wDXJf5CrFAGN/wkVp/zzn/75H+NNk1m3u42toklV5gY1LKMAngZ5965fFWNO/5CVr6+av8AMUAaP/CO3f8Az0g/76b/AAqS206bSZlvblo2iizkRklueO/1FdNWf4g/5BFx/wAB/wDQhQBW/wCEitP+ec//AHyP8ahu7lNci+zWm5JFIkzJwCBxjjPqK5vFbPhX/kIyf9cj/NaAD/hHbv8A56Qf99N/hVmz/wCJAH+2HeZ8bRFzjb65x6iuhrnfF3/Lp/wP/wBloAs/8JFaf885/wDvkf41Vu7Z9ckW6s2VERfLKy5Bz17Z9RXP4rqvCn/IPl/66n+QoAzv+Edu/wDnpB/303+FXbfUYdJhWyuFkeWPO4xgbeTnjJ963a43xB/yGJ/+A/8AoIoA2f8AhIrT/nnP/wB8j/GqEui3F5K9zFJCI5mMq7iQwDc4NYmK7vTv+Qfa/wDXJf5CgDnf+Edu/wDnpB/303+FaP8AwkVp/wA85/8Avkf41s155igDqJNZt7uNraJJVeYGNSyjAJ4GefeqH/CO3f8Az0g/76b/AArO07/kJWvr5q/zFd3QBzNtp02kzLe3LRtFFnIjJLc8d/qKu/8ACRWn/POf/vkf41Z8Qf8AIIuP+A/+hCuMxQB0l3cprkX2a03JIpEmZOAQOMcZ9RVT/hHbv/npB/303+FHhX/kIyf9cj/Na6qgDnrP/iQB/th3mfG0Rc42+uceoqx/wkVp/wA85/8Avkf41W8Xf8un/A//AGWuexQB0F3bPrki3VmyoiL5ZWXIOevbPqKg/wCEdu/+ekH/AH03+FaPhT/kHy/9dT/IVs0AYVvqMOkwrZXCyPLHncYwNvJzxk+9Sf8ACRWn/POf/vkf41jeIP8AkMT/APAf/QRWdigDbl0W4vJXuYpIRHMxlXcSGAbnBpv/AAjt3/z0g/76b/Cui07/AJB9r/1yX+QqxQBjf8JFaf8APOf/AL5H+NFcriigDof+EZ/6ev8AyF/9el/sP7F/pX2guIP3uwJjO3nHWuhqvqP/ACD7r/rk38jQBjf8JL/06f8AkT/61J/aQ1j/AEExeT5v8e7djHzdOPSudzWl4fH/ABOIP+Bf+gmgDQ/4Rn/p6/8AIX/16X7MNAzdb/P3/utmNmM85zz6V0NY3iv/AJB8X/XUf+gtQBX/AOEl/wCnT/yJ/wDWpOPEQ/59zB/wPO78vSudzXReEf8Al7/4B/7NQAf8Iz/09f8AkL/69L9p/sDFrt+0b/3hbO3HbGOfSuhrlfFf/IRT/rkP5tQBZ/4SX/p0/wDIn/1qT+zBrH+n+b5Pm/wbd2McdePSudzXZ+Hv+QRb/wDAv/QjQBnf8Iz/ANPX/kL/AOvS/wBufYj9lFvvEH7rcXxnHGentXQ1wmpf8hG5/wCurfzNAG1/wkv/AE6f+RP/AK1J/wAIz/09f+Qv/r1zua9EoA57+w/sX+lfaC4g/e7AmM7ecdaP+El/6dP/ACJ/9atnUf8AkH3X/XJv5GuDzQB0X9pDWP8AQTF5Pm/x7t2MfN049KP+EZ/6ev8AyF/9es/w+P8AicQf8C/9BNdlQBz32YaBm63+fv8A3WzGzGec559KP+El/wCnT/yJ/wDWqx4r/wCQfF/11H/oLVymaAOi48RD/n3MH/A87vy9KP8AhGf+nr/yF/8AXo8I/wDL3/wD/wBmroqAOe+0/wBgYtdv2jf+8LZ247Yxz6Uf8JL/ANOn/kT/AOtVbxX/AMhFP+uQ/m1YuaAOi/swax/p/m+T5v8ABt3Yxx149KP+EZ/6ev8AyF/9etHw9/yCLf8A4F/6Ea0aAOe/tz7Efsot94g/dbi+M44z09qP+El/6dP/ACJ/9asXUv8AkI3P/XVv5mq2aAOi/wCEZ/6ev/IX/wBel/sP7F/pX2guIP3uwJjO3nHWuhqvqP8AyD7r/rk38jQBjf8ACS/9On/kT/61J/aQ1j/QTF5Pm/x7t2MfN049K53NaXh8f8TiD/gX/oJoA0P+EZ/6ev8AyF/9el+zDQM3W/z9/wC62Y2YzznPPpXQ1jeK/wDkHxf9dR/6C1AFf/hJf+nT/wAif/WpOPEQ/wCfcwf8Dzu/L0rnc10XhH/l7/4B/wCzUAH/AAjP/T1/5C/+vS/af7Axa7ftG/8AeFs7cdsY59K6GuV8V/8AIRT/AK5D+bUAWf8AhJf+nT/yJ/8AWpP7MGsf6f5vk+b/AAbd2McdePSudzXZ+Hv+QRb/APAv/QjQBnf8Iz/09f8AkL/69L/bn2I/ZRb7xB+63F8Zxxnp7V0NcJqX/IRuf+urfzNAG1/wkv8A06f+RP8A61J/wjP/AE9f+Qv/AK9c7mvRKAOe/sP7F/pX2guIP3uwJjO3nHWj/hJf+nT/AMif/WrZ1H/kH3X/AFyb+Rrg80AdF/aQ1j/QTF5Pm/x7t2MfN049KP8AhGf+nr/yF/8AXrP8Pj/icQf8C/8AQTXZUAc99mGgZut/n7/3WzGzGec559KP+El/6dP/ACJ/9arHiv8A5B8X/XUf+gtXKZoA6LjxEP8An3MH/A87vy9KP+EZ/wCnr/yF/wDXo8I/8vf/AAD/ANmroqAOe+0/2Bi12/aN/wC8LZ247Yxz6Uf8JL/06f8AkT/61VvFf/IRT/rkP5tWLmgDov7MGsf6f5vk+b/Bt3Yxx149KP8AhGf+nr/yF/8AXrR8Pf8AIIt/+Bf+hGtGgDnv7c+xH7KLfeIP3W4vjOOM9Paj/hJf+nT/AMif/WrF1L/kI3P/AF1b+ZqtmgDov+EZ/wCnr/yF/wDXpf7D+xf6V9oLiD97sCYzt5x1roar6j/yD7r/AK5N/I0AY3/CS/8ATp/5E/8ArUn9pDWP9BMXk+b/AB7t2MfN049K53NaXh8f8TiD/gX/AKCaAND/AIRn/p6/8hf/AF6X7MNAzdb/AD9/7rZjZjPOc8+ldDWN4r/5B8X/AF1H/oLUAV/+El/6dP8AyJ/9ak48RD/n3MH/AAPO78vSudzXReEf+Xv/AIB/7NQAf8Iz/wBPX/kL/wCvS/af7Axa7ftG/wDeFs7cdsY59K6GuV8V/wDIRT/rkP5tQBZ/4SX/AKdP/In/ANak/swax/p/m+T5v8G3djHHXj0rnc12fh7/AJBFv/wL/wBCNAGd/wAIz/09f+Qv/r0v9ufYj9lFvvEH7rcXxnHGentXQ1wmpf8AIRuf+urfzNAG1/wkv/Tp/wCRP/rUn/CM/wDT1/5C/wDr1zua9EoA57+w/sX+lfaC4g/e7AmM7ecdaP8AhJf+nT/yJ/8AWrZ1H/kH3X/XJv5GuDzQB0X9pDWP9BMXk+b/AB7t2MfN049KP+EZ/wCnr/yF/wDXrP8AD4/4nEH/AAL/ANBNdlQBz32YaBm63+fv/dbMbMZ5znn0o/4SX/p0/wDIn/1qseK/+QfF/wBdR/6C1cpmgDouPEQ/59zB/wADzu/L0o/4Rn/p6/8AIX/16PCP/L3/AMA/9mroqAOe+0/2Bi12/aN/7wtnbjtjHPpR/wAJL/06f+RP/rVW8V/8hFP+uQ/m1YuaAOi/swax/p/m+T5v8G3djHHXj0o/4Rn/AKev/IX/ANetHw9/yCLf/gX/AKEa0aAOe/tz7Efsot94g/dbi+M44z09qP8AhJf+nT/yJ/8AWrF1L/kI3P8A11b+ZqtmgDov+EZ/6ev/ACF/9eiuiooA5X/hIrv/AJ5Qfkf8adFrc95IttLHEI5WETFQQcMccc0UUAX/APhHbT/npcf99D/Co5tNh0mJr23MjzR/dEhGOSBzge9FFAFL/hIrv/nlB+R/xqe0uW1x2tbtQiIN+YuDkHHfPrRRQBa/4R20/wCelx/30P8ACq14f7A2Cz+cz5LGXn7uOmMepoooAr/8JFd/88oPyP8AjVu0t012I3N2WSRCYwIjgYwD3z60UUATf8I7af8APS4/76H+FU7jUZdKmaxtUjMUWNpkyTzzzgj1oooAi/4SK7/55Qfkf8avx6Na3ka3TtMrzqJGCsAASM+lFFADv+EdtP8Anpcf99D/AArO/wCEiu/+eUH5H/GiigB0Wtz3ki20scQjlYRMVBBwxxxzV/8A4R20/wCelx/30P8ACiigCObTYdJia9tzI80f3RIRjkgc4HvVL/hIrv8A55Qfkf8AGiigCe0uW1x2tbtQiIN+YuDkHHfPrVr/AIR20/56XH/fQ/woooArXh/sDYLP5zPksZefu46Yx6mq/wDwkV3/AM8oPyP+NFFAFu0t012I3N2WSRCYwIjgYwD3z61N/wAI7af89Lj/AL6H+FFFAFO41GXSpmsbVIzFFjaZMk8884I9ai/4SK7/AOeUH5H/ABoooAvx6Na3ka3TtMrzqJGCsAASM+lO/wCEdtP+elx/30P8KKKAM7/hIrv/AJ5Qfkf8adFrc95IttLHEI5WETFQQcMccc0UUAX/APhHbT/npcf99D/Co5tNh0mJr23MjzR/dEhGOSBzge9FFAFL/hIrv/nlB+R/xqe0uW1x2tbtQiIN+YuDkHHfPrRRQBa/4R20/wCelx/30P8ACq14f7A2Cz+cz5LGXn7uOmMepoooAr/8JFd/88oPyP8AjVu0t012I3N2WSRCYwIjgYwD3z60UUATf8I7af8APS4/76H+FU7jUZdKmaxtUjMUWNpkyTzzzgj1oooAi/4SK7/55Qfkf8avx6Na3ka3TtMrzqJGCsAASM+lFFADv+EdtP8Anpcf99D/AArO/wCEiu/+eUH5H/GiigB0Wtz3ki20scQjlYRMVBBwxxxzV/8A4R20/wCelx/30P8ACiigCObTYdJia9tzI80f3RIRjkgc4HvVL/hIrv8A55Qfkf8AGiigCe0uW1x2tbtQiIN+YuDkHHfPrVr/AIR20/56XH/fQ/woooArXh/sDYLP5zPksZefu46Yx6mq/wDwkV3/AM8oPyP+NFFAFu0t012I3N2WSRCYwIjgYwD3z61N/wAI7af89Lj/AL6H+FFFAFO41GXSpmsbVIzFFjaZMk8884I9ai/4SK7/AOeUH5H/ABoooAvx6Na3ka3TtMrzqJGCsAASM+lO/wCEdtP+elx/30P8KKKAM7/hIrv/AJ5Qfkf8adFrc95IttLHEI5WETFQQcMccc0UUAX/APhHbT/npcf99D/Co5tNh0mJr23MjzR/dEhGOSBzge9FFAFL/hIrv/nlB+R/xqe0uW1x2tbtQiIN+YuDkHHfPrRRQBa/4R20/wCelx/30P8ACq14f7A2Cz+cz5LGXn7uOmMepoooAr/8JFd/88oPyP8AjVu0t012I3N2WSRCYwIjgYwD3z60UUATf8I7af8APS4/76H+FU7jUZdKmaxtUjMUWNpkyTzzzgj1oooAi/4SK7/55Qfkf8avx6Na3ka3TtMrzqJGCsAASM+lFFADv+EdtP8Anpcf99D/AArO/wCEiu/+eUH5H/GiigB0Wtz3ki20scQjlYRMVBBwxxxzV/8A4R20/wCelx/30P8ACiigCObTYdJia9tzI80f3RIRjkgc4HvVL/hIrv8A55Qfkf8AGiigCe0uW1x2tbtQiIN+YuDkHHfPrVr/AIR20/56XH/fQ/woooArXh/sDYLP5zPksZefu46Yx6mq/wDwkV3/AM8oPyP+NFFAFu0t012I3N2WSRCYwIjgYwD3z61N/wAI7af89Lj/AL6H+FFFAFO41GXSpmsbVIzFFjaZMk8884I9ai/4SK7/AOeUH5H/ABoooAvx6Na3ka3TtMrzqJGCsAASM+lO/wCEdtP+elx/30P8KKKAM7/hIrv/AJ5Qfkf8aKKKAP/Z;fillColor=#ffffff;" parent="1" vertex="1">
          <mxGeometry x="700" y="29.999999999999936" width="50" height="44.37" as="geometry"/>
        </mxCell>
      </root>
    </mxGraphModel>
  </diagram>
</mxfile>
